<?xml version="1.0" standalone="no"?>
<!DOCTYPE svg PUBLIC "-//W3C//DTD SVG 20010904//EN"
 "http://www.w3.org/TR/2001/REC-SVG-20010904/DTD/svg10.dtd">
<svg version="1.0" xmlns="http://www.w3.org/2000/svg"
 width="93.000000pt" height="93.000000pt" viewBox="0 0 93.000000 93.000000"
 preserveAspectRatio="xMidYMid meet">
<metadata>
Created by potrace 1.14, written by Peter Selinger 2001-2017
</metadata>
<g transform="translate(0.000000,93.000000) scale(0.100000,-0.100000)"
fill="#000000" stroke="none">
<path d="M159 775 c-210 -109 -191 -403 29 -432 151 -20 281 148 236 305 -15
53 -55 107 -95 128 -30 15 -32 14 -70 -11 -51 -36 -67 -55 -45 -55 45 0 110
-66 130 -132 22 -71 3 -139 -45 -163 -89 -46 -173 22 -178 144 -3 74 15 116
73 179 62 66 48 81 -35 37z"/>
<path d="M655 779 c-128 -67 -188 -211 -136 -324 59 -129 233 -154 333 -48
103 108 85 307 -33 368 -33 18 -50 12 -100 -33 l-29 -25 38 -17 c93 -42 141
-156 101 -238 -44 -89 -153 -82 -199 12 -43 90 -21 194 58 270 59 56 42 74
-33 35z"/>
<path d="M236 514 c-19 -18 -20 -28 -6 -55 12 -21 50 -25 68 -7 18 18 14 56
-7 68 -27 14 -37 13 -55 -6z"/>
<path d="M728 519 c-22 -12 -23 -52 -2 -69 21 -19 68 -1 72 26 3 23 -21 54
-41 54 -7 0 -20 -5 -29 -11z"/>
<path d="M242 270 c-23 -22 -28 -39 -12 -41 6 -1 13 -2 18 -3 4 -1 32 -18 62
-38 30 -20 74 -42 98 -48 84 -22 190 4 257 64 17 14 36 24 43 21 25 -9 26 27
1 46 -30 23 -48 24 -56 2 -14 -41 -53 -68 -53 -38 0 18 -34 37 -54 29 -19 -7
-29 -38 -21 -64 5 -17 2 -20 -27 -21 -74 -3 -147 21 -181 59 -15 17 -17 21
-17 42 0 17 -35 11 -58 -10z"/>
</g>
</svg>
