<?xml version="1.0" encoding="utf-8"?>
<!-- Generator: Adobe Illustrator 24.3.0, SVG Export Plug-In . SVG Version: 6.00 Build 0)  -->
<svg version="1.1" id="Layer_1" xmlns="http://www.w3.org/2000/svg" xmlns:xlink="http://www.w3.org/1999/xlink" x="0px" y="0px"
	 viewBox="0 0 805.4 228.96" style="enable-background:new 0 0 805.4 228.96;" xml:space="preserve">
<style type="text/css">
	.st0{fill:#0DAE4A;}
</style>
<circle class="st0" cx="188.67" cy="150.62" r="7.96"/>
<circle class="st0" cx="289.48" cy="150.62" r="7.96"/>
<g>
	<path class="st0" d="M275.48,197.55c0.05,1.54-1.32,2.48-2.32,3.17c-0.09,0.06-0.18,0.12-0.25,0.18c-0.95,0.67-2.23,0.5-3.05,0.15
		c-0.82-0.35-1.18-0.2-2.74,1.17l-0.1,0.09c-9.07,7.99-18.21,12.88-27.95,14.96c-3.45,0.74-6.89,1.1-10.3,1.1
		c-9.55,0-18.94-2.87-28.04-8.59c-3-1.89-5.77-4.15-8.44-6.35c-0.84-0.69-1.72-1.41-2.58-2.1c-0.13-0.1-0.34-0.27-0.47-0.35
		c-0.89,0.32-1.8,0.3-2.53,0.29l-0.07,0c-1.22-0.03-2.32-0.52-3.01-1.36c-0.62-0.75-0.88-1.71-0.71-2.7
		c0.23-1.38,1.61-3.42,3.35-3.61c1.82-0.2,3.04-0.95,4.07-2.52c0.83-1.27,1.86-1.7,2.57-1.84c0.7-0.14,1.78-0.12,2.99,0.7
		c1.9,1.31,2.25,3.49,0.9,5.55c-0.22,0.33-0.44,0.65-0.67,0.96c20.3,18.75,45.32,18.62,65.94-0.36c-0.21-0.3-0.41-0.6-0.6-0.93
		c-1.16-1.98-0.66-4.12,1.25-5.32c1.9-1.19,4.06-0.76,5.25,1.05c1.15,1.74,2.43,2.56,4.3,2.73c0.9,0.08,1.7,0.7,2.28,1.48
		C275.1,195.88,275.45,196.82,275.48,197.55z"/>
	<path class="st0" d="M253.31,207.48l-1.47-7.57c-0.76-3.92-4.56-6.48-8.48-5.72h0c-3.92,0.76-6.48,4.56-5.72,8.48l1.47,7.57
		L253.31,207.48z"/>
</g>
<path d="M93.95,75.42c-1.08,2.58-1.63,5.61-1.63,9.08v25.54h12.1c10.48,0,18.97-2.46,25.47-7.37l3.07,3.24
	c-6.87,10.55-17.95,15.83-33.24,15.83h-7.41v34.17c0,8.39-1.9,15.56-5.69,21.49c-3.79,5.94-9.61,11.36-17.43,16.28l-3.79-4.32
	c3.01-3.24,4.52-9.05,4.52-17.45v-50.18H53.48l9.03-11.69h7.41V94.93c0-8.63,5.66-17.92,16.98-27.88l-24.75-0.18
	c-7.71,0-14.7,3.66-20.96,10.97l-3.79-3.78c5.54-7.43,11.29-13.31,17.25-17.63s12.8-6.47,20.51-6.47h43.18
	c5.78,0,11.62-0.51,17.52-1.53c5.9-1.02,10.42-2.85,13.55-5.49l2.71,3.24c-3.86,5.88-9.15,10.82-15.9,14.84
	c-6.75,4.02-14.15,6.02-22.22,6.02H99.01C96.72,70.05,95.03,72.84,93.95,75.42z"/>
<path class="st0" d="M184.46,89c-7.95,5.64-14.18,12.02-18.7,19.15c-4.52,7.14-6.77,15.5-6.77,25.09c0,5.28,1.02,10.61,3.07,16.01
	c2.05,5.4,5.06,9.86,9.03,13.4c3.97,3.54,8.73,5.31,14.27,5.31c6.98,0,12.62-2.52,16.89-7.55c4.27-5.04,6.41-11.27,6.41-18.7
	c0-5.63-1.48-11.36-4.43-17.18c-2.95-5.81-6.9-10.73-11.83-14.75c-4.94-4.02-10.24-6.26-15.9-6.74c2.53-2.76,5.27-5.27,8.22-7.55
	c2.95-2.28,6.65-5.04,11.11-8.27c8.67,2.88,15.57,8.21,20.69,16.01c5.12,7.8,7.68,16.37,7.68,25.72c0,8.27-1.84,16.31-5.51,24.1
	c-3.68,7.8-8.97,14.12-15.9,18.97c-6.93,4.86-14.97,7.28-24.12,7.28c-7.59,0-14.54-1.77-20.87-5.31
	c-6.32-3.54-11.35-8.39-15.09-14.57c-3.73-6.17-5.6-12.98-5.6-20.41c0-12.83,4.07-24.1,12.19-33.81
	c8.13-9.71,18.7-16.48,31.71-20.32L184.46,89z"/>
<path class="st0" d="M285.27,89c-7.95,5.64-14.18,12.02-18.7,19.15c-4.52,7.14-6.77,15.5-6.77,25.09c0,5.28,1.02,10.61,3.07,16.01
	c2.05,5.4,5.06,9.86,9.03,13.4c3.97,3.54,8.73,5.31,14.27,5.31c6.98,0,12.62-2.52,16.89-7.55c4.27-5.04,6.41-11.27,6.41-18.7
	c0-5.63-1.48-11.36-4.43-17.18c-2.95-5.81-6.9-10.73-11.83-14.75c-4.94-4.02-10.24-6.26-15.9-6.74c2.53-2.76,5.27-5.27,8.22-7.55
	c2.95-2.28,6.65-5.04,11.11-8.27c8.67,2.88,15.57,8.21,20.69,16.01c5.12,7.8,7.68,16.37,7.68,25.72c0,8.27-1.84,16.31-5.51,24.1
	c-3.68,7.8-8.97,14.12-15.9,18.97c-6.93,4.86-14.97,7.28-24.12,7.28c-7.59,0-14.54-1.77-20.87-5.31
	c-6.32-3.54-11.35-8.39-15.09-14.57c-3.73-6.17-5.6-12.98-5.6-20.41c0-12.83,4.07-24.1,12.19-33.81
	c8.13-9.71,18.7-16.48,31.71-20.32L285.27,89z"/>
<path d="M420.41,159.5c0,1.68,0.39,3.15,1.17,4.41c0.78,1.26,1.96,1.89,3.52,1.89c1.56,0,3.16-0.66,4.79-1.98
	c1.63-1.32,2.86-2.76,3.7-4.32l3.97,3.42c-2.17,4.2-5.15,7.76-8.94,10.7c-3.79,2.94-7.86,4.41-12.19,4.41
	c-6.26,0-10.78-1.71-13.55-5.13c-2.77-3.42-4.1-8.66-3.97-15.74h-0.9c-2.77,6.24-6.39,11.42-10.84,15.56
	c-4.46,4.14-9.82,6.21-16.08,6.21c-6.63,0-12.29-1.68-16.98-5.04c-4.7-3.36-8.25-7.88-10.66-13.58c-2.41-5.69-3.61-12.02-3.61-18.97
	c0-8.87,1.83-17.59,5.51-26.17c3.67-8.57,9-15.62,15.99-21.13c6.98-5.51,15.11-8.27,24.39-8.27c4.7,0,8.97,1.14,12.83,3.42V18.13
	l21.86-7.55V159.5z M371,103.12c-3.79,3.9-6.59,8.7-8.4,14.39c-1.81,5.7-2.71,11.3-2.71,16.82c0,7.44,1.47,14.51,4.43,21.22
	c2.95,6.72,7.62,10.07,14,10.07c7.71,0,13.01-3.93,15.9-11.78c2.89-7.85,4.34-16.4,4.34-25.63v-25c-3.97-3.96-8.37-5.94-13.19-5.94
	C379.58,97.27,374.79,99.22,371,103.12z"/>
<path d="M470.63,67.95l-11.38,3.6l-7.41-37.59l25.11-8.45L470.63,67.95z M476.41,160.22c0,1.8,0.42,3.24,1.26,4.32
	c0.84,1.08,1.99,1.62,3.43,1.62c3.01,0,6.08-2.1,9.21-6.3l3.25,3.42c-2.65,4.8-6.05,8.45-10.21,10.97
	c-4.16,2.52-8.28,3.78-12.38,3.78c-10.96,0-16.44-6.29-16.44-18.88V94.39l21.86-7.55V160.22z"/>
<path d="M574.15,90.53c4.7,3.54,7.04,8.66,7.04,15.38c0,5.4-2.92,11.42-8.76,18.08c-5.84,6.65-12.77,12.83-20.78,18.53
	c-8.01,5.7-14.84,9.8-20.51,12.32c5.06,8.03,12.47,12.05,22.22,12.05c5.42,0,10.87-1.53,16.35-4.59c5.48-3.06,10.15-7.1,14-12.14
	l3.61,4.32c-6.26,7.8-12.86,13.82-19.78,18.08c-6.93,4.25-15.15,6.39-24.66,6.39c-7.71,0-14.61-1.74-20.69-5.22
	c-6.08-3.48-10.84-8.24-14.27-14.3c-3.43-6.05-5.15-12.86-5.15-20.41c0-9.11,2.5-17.83,7.5-26.17c5-8.33,11.65-15.02,19.96-20.05
	c8.31-5.04,17.1-7.55,26.38-7.55C563.61,85.22,569.45,86.99,574.15,90.53z M534.04,101.86c-3.61,3.3-6.45,7.53-8.49,12.68
	c-2.05,5.16-3.07,10.49-3.07,16.01c0,7.19,1.56,13.37,4.7,18.52c4.45-2.52,9.18-6.02,14.18-10.52c5-4.5,9.18-9.32,12.56-14.48
	c3.37-5.15,5.06-9.83,5.06-14.03c0-4.2-1.11-7.43-3.34-9.71c-2.23-2.28-5.33-3.42-9.31-3.42
	C541.75,96.91,537.65,98.56,534.04,101.86z"/>
<path class="st0" d="M627.63,172.81L605.04,180V51.95l22.58-7.01V172.81z"/>
<path class="st0" d="M677.85,98.71v61.51c0,1.68,0.48,3.09,1.44,4.23c0.96,1.14,2.23,1.71,3.79,1.71c2.89,0,6.14-2.1,9.76-6.3
	l3.25,3.42c-2.17,4.32-4.88,7.55-8.13,9.71c-3.25,2.16-6.38,3.6-9.39,4.32c-3.01,0.72-4.52,0.96-4.52,0.72
	c-12.04,0-18.07-6.29-18.07-18.88V98.71h-12.83l5.6-11.87h7.23V46.01l21.86-7.37v48.2h23.67l-5.42,11.87H677.85z"/>
<path class="st0" d="M750.29,89.18c-0.12,2.88-0.72,5.4-1.81,7.55c-1.08,2.16-2.26,4.08-3.52,5.76c-1.27,1.68-2.14,2.82-2.62,3.42
	c1.56,1.8,4.4,4.38,8.49,7.73c3.73,3,6.74,5.73,9.03,8.18c2.29,2.46,4.21,5.58,5.78,9.35c1.56,3.78,2.35,8.36,2.35,13.76
	c0,6.24-1.54,11.96-4.61,17.18c-3.07,5.22-7.26,9.32-12.56,12.32c-5.3,3-11.14,4.5-17.52,4.5c-4.7,0-9.57-0.84-14.63-2.52
	c-5.06-1.68-8.85-4.02-11.38-7.01l13.19-17.63c2.53,3.84,5.54,7.26,9.03,10.25c3.49,3,6.98,4.5,10.48,4.5c4.45,0,8.31-1.5,11.56-4.5
	c3.25-3,4.88-6.77,4.88-11.33c0-3.72-1.57-7.37-4.7-10.97c-3.13-3.6-7.59-7.97-13.37-13.13c-3.97-3.48-6.5-5.81-7.59-7.01
	l-12.29,17.81l-6.5-4.32l14.09-19.42c-2.41-4.32-3.61-9.29-3.61-14.93c0-5.51,1.32-10.1,3.97-13.76c2.65-3.66,6.5-5.49,11.56-5.49
	C746.2,79.47,750.29,82.7,750.29,89.18z M735.12,88.1c-0.48,0.84-0.72,2.04-0.72,3.6c0,1.32,0.24,2.64,0.72,3.96
	c0.48,1.32,1.02,2.64,1.63,3.96c1.32-0.96,2.47-2.4,3.43-4.32c0.96-1.92,1.44-3.6,1.44-5.04c0-0.96-0.33-1.77-0.99-2.43
	c-0.66-0.66-1.54-0.99-2.62-0.99C736.56,86.84,735.6,87.26,735.12,88.1z"/>
</svg>
