<?xml version="1.0" encoding="utf-8"?>
<!-- Generator: Adobe Illustrator 24.3.0, SVG Export Plug-In . SVG Version: 6.00 Build 0)  -->
<svg version="1.1" id="Layer_1" xmlns="http://www.w3.org/2000/svg" xmlns:xlink="http://www.w3.org/1999/xlink" x="0px" y="0px"
	 viewBox="0 0 200 200" style="enable-background:new 0 0 200 200;" xml:space="preserve">
<style type="text/css">
	.st0{fill:#0DAE4A;}
</style>
<g>
	<circle class="st0" cx="57.6" cy="99" r="8"/>
	<circle class="st0" cx="158.4" cy="99" r="8"/>
	<g>
		<path class="st0" d="M144.4,145.9c0,1.5-1.3,2.5-2.3,3.2c-0.1,0.1-0.2,0.1-0.3,0.2c-1,0.7-2.2,0.5-3,0.1c-0.8-0.4-1.2-0.2-2.7,1.2
			l-0.1,0.1c-9.1,8-18.2,12.9-27.9,15c-3.4,0.7-6.9,1.1-10.3,1.1c-9.6,0-18.9-2.9-28-8.6c-3-1.9-5.8-4.1-8.4-6.4
			c-0.8-0.7-1.7-1.4-2.6-2.1c-0.1-0.1-0.3-0.3-0.5-0.4c-0.9,0.3-1.8,0.3-2.5,0.3h-0.1c-1.2,0-2.3-0.5-3-1.4
			c-0.6-0.8-0.9-1.7-0.7-2.7c0.2-1.4,1.6-3.4,3.4-3.6c1.8-0.2,3-0.9,4.1-2.5c0.8-1.3,1.9-1.7,2.6-1.8c0.7-0.1,1.8-0.1,3,0.7
			c1.9,1.3,2.3,3.5,0.9,5.6c-0.2,0.3-0.4,0.6-0.7,1c20.3,18.8,45.3,18.6,65.9-0.4c-0.2-0.3-0.4-0.6-0.6-0.9c-1.2-2-0.7-4.1,1.3-5.3
			c1.9-1.2,4.1-0.8,5.3,1.1c1.1,1.7,2.4,2.6,4.3,2.7c0.9,0.1,1.7,0.7,2.3,1.5C144,144.3,144.4,145.2,144.4,145.9z"/>
		<path class="st0" d="M122.2,155.9l-1.5-7.6c-0.8-3.9-4.6-6.5-8.5-5.7l0,0c-3.9,0.8-6.5,4.6-5.7,8.5l1.5,7.6L122.2,155.9z"/>
	</g>
	<path class="st0" d="M53.4,37.4c-7.9,5.6-14.2,12-18.7,19.2c-4.5,7.1-6.8,15.5-6.8,25.1c0,5.3,1,10.6,3.1,16s5.1,9.9,9,13.4
		s8.7,5.3,14.3,5.3c7,0,12.6-2.5,16.9-7.6c4.3-5,6.4-11.3,6.4-18.7c0-5.6-1.5-11.4-4.4-17.2c-2.9-5.8-6.9-10.7-11.8-14.7
		c-4.9-4-10.2-6.3-15.9-6.7c2.5-2.8,5.3-5.3,8.2-7.6c2.9-2.3,6.6-5,11.1-8.3c8.7,2.9,15.6,8.2,20.7,16c5.1,7.8,7.7,16.4,7.7,25.7
		c0,8.3-1.8,16.3-5.5,24.1c-3.7,7.8-9,14.1-15.9,19c-6.9,4.9-15,7.3-24.1,7.3c-7.6,0-14.5-1.8-20.9-5.3c-6.3-3.5-11.4-8.4-15.1-14.6
		c-3.7-6.2-5.6-13-5.6-20.4c0-12.8,4.1-24.1,12.2-33.8c8.1-9.7,18.7-16.5,31.7-20.3L53.4,37.4z"/>
	<path class="st0" d="M154.2,37.4c-8,5.6-14.2,12-18.7,19.2c-4.5,7.1-6.8,15.5-6.8,25.1c0,5.3,1,10.6,3.1,16c2,5.4,5.1,9.9,9,13.4
		s8.7,5.3,14.3,5.3c7,0,12.6-2.5,16.9-7.6c4.3-5,6.4-11.3,6.4-18.7c0-5.6-1.5-11.4-4.4-17.2c-3-5.8-6.9-10.7-11.8-14.7
		c-4.9-4-10.2-6.3-15.9-6.7c2.5-2.8,5.3-5.3,8.2-7.6c3-2.3,6.6-5,11.1-8.3c8.7,2.9,15.6,8.2,20.7,16s7.7,16.4,7.7,25.7
		c0,8.3-1.8,16.3-5.5,24.1c-3.7,7.8-9,14.1-15.9,19c-6.9,4.9-15,7.3-24.1,7.3c-7.6,0-14.5-1.8-20.9-5.3c-6.3-3.5-11.4-8.4-15.1-14.6
		c-3.7-6.2-5.6-13-5.6-20.4c0-12.8,4.1-24.1,12.2-33.8c8.1-9.7,18.7-16.5,31.7-20.3L154.2,37.4z"/>
</g>
</svg>
