<?xml version="1.0" encoding="utf-8"?>
<!-- Generator: Adobe Illustrator 24.3.0, SVG Export Plug-In . SVG Version: 6.00 Build 0)  -->
<svg version="1.1" id="Layer_1" xmlns="http://www.w3.org/2000/svg" xmlns:xlink="http://www.w3.org/1999/xlink" x="0px" y="0px"
	 viewBox="0 0 600 400" style="enable-background:new 0 0 600 400;" xml:space="preserve">
<style type="text/css">
	.st0{fill:#C5D3FF;}
	.st1{fill:#F3817F;}
	.st2{fill:url(#SVGID_1_);}
	.st3{fill:#FFFFFF;}
	.st4{fill:url(#SVGID_2_);}
	.st5{fill:#6476BF;}
	.st6{filter:url(#Adobe_OpacityMaskFilter);}
	.st7{filter:url(#Adobe_OpacityMaskFilter_1_);}
	.st8{mask:url(#SVGID_3_);fill:url(#SVGID_4_);}
	.st9{fill:url(#SVGID_5_);}
	.st10{filter:url(#Adobe_OpacityMaskFilter_2_);}
	.st11{filter:url(#Adobe_OpacityMaskFilter_3_);}
	.st12{mask:url(#SVGID_6_);fill:url(#SVGID_7_);}
	.st13{fill:url(#SVGID_8_);}
	.st14{fill:#39436C;}
	.st15{fill:#FFC539;}
	.st16{fill:#FFA9A9;}
	.st17{fill:#DCDFFF;}
	.st18{fill:#224DDA;}
	.st19{filter:url(#Adobe_OpacityMaskFilter_4_);}
	.st20{filter:url(#Adobe_OpacityMaskFilter_5_);}
	.st21{mask:url(#SVGID_9_);fill:url(#SVGID_10_);}
	.st22{fill:url(#SVGID_11_);}
	.st23{fill:#1E44C1;}
	.st24{filter:url(#Adobe_OpacityMaskFilter_6_);}
	.st25{filter:url(#Adobe_OpacityMaskFilter_7_);}
	.st26{mask:url(#SVGID_12_);fill:url(#SVGID_13_);}
	.st27{fill:url(#SVGID_14_);}
	.st28{fill:#1B2033;}
	.st29{fill:#372464;}
	.st30{filter:url(#Adobe_OpacityMaskFilter_8_);}
	.st31{filter:url(#Adobe_OpacityMaskFilter_9_);}
	.st32{mask:url(#SVGID_15_);fill:url(#SVGID_16_);}
	.st33{fill:url(#SVGID_17_);}
	.st34{fill:#285AFF;}
	.st35{filter:url(#Adobe_OpacityMaskFilter_10_);}
	.st36{filter:url(#Adobe_OpacityMaskFilter_11_);}
	.st37{mask:url(#SVGID_18_);fill:url(#SVGID_19_);}
	.st38{fill:url(#SVGID_20_);}
	.st39{fill:url(#SVGID_21_);}
	.st40{fill:url(#SVGID_22_);}
	.st41{fill:url(#SVGID_23_);}
	.st42{filter:url(#Adobe_OpacityMaskFilter_12_);}
	.st43{filter:url(#Adobe_OpacityMaskFilter_13_);}
	.st44{mask:url(#SVGID_24_);fill:url(#SVGID_25_);}
	.st45{fill:url(#SVGID_26_);}
	.st46{fill:url(#SVGID_27_);}
	.st47{fill:url(#SVGID_28_);}
	.st48{fill:url(#SVGID_29_);}
	.st49{fill:#272E4A;}
	.st50{fill:url(#SVGID_30_);}
	.st51{fill:url(#SVGID_31_);}
	.st52{fill:url(#SVGID_32_);}
	.st53{fill:url(#SVGID_33_);}
	.st54{fill:url(#SVGID_34_);}
	.st55{fill:url(#SVGID_35_);}
	.st56{fill:url(#SVGID_36_);}
	.st57{fill:url(#SVGID_37_);}
	.st58{fill:url(#SVGID_38_);}
	.st59{fill:url(#SVGID_39_);}
	.st60{fill:url(#SVGID_40_);}
	.st61{fill:url(#SVGID_41_);}
	.st62{fill:url(#SVGID_42_);}
	.st63{fill:url(#SVGID_43_);}
	.st64{fill:url(#SVGID_44_);}
	.st65{fill:url(#SVGID_45_);}
	.st66{fill:url(#SVGID_46_);}
	.st67{fill:url(#SVGID_47_);}
	.st68{fill:url(#SVGID_48_);}
	.st69{fill:url(#SVGID_49_);}
	.st70{fill:#CCCCCC;}
	.st71{fill:url(#SVGID_50_);}
	.st72{fill:url(#SVGID_51_);}
	.st73{fill:url(#SVGID_52_);}
	.st74{fill:#FFAE3A;}
	.st75{filter:url(#Adobe_OpacityMaskFilter_14_);}
	.st76{filter:url(#Adobe_OpacityMaskFilter_15_);}
	.st77{mask:url(#SVGID_53_);fill:url(#SVGID_54_);}
	.st78{fill:url(#SVGID_55_);}
	.st79{filter:url(#Adobe_OpacityMaskFilter_16_);}
	.st80{filter:url(#Adobe_OpacityMaskFilter_17_);}
	.st81{mask:url(#SVGID_56_);fill:url(#SVGID_57_);}
	.st82{fill:url(#SVGID_58_);}
	.st83{filter:url(#Adobe_OpacityMaskFilter_18_);}
	.st84{filter:url(#Adobe_OpacityMaskFilter_19_);}
	.st85{mask:url(#SVGID_59_);fill:url(#SVGID_60_);}
	.st86{fill:url(#SVGID_61_);}
	.st87{filter:url(#Adobe_OpacityMaskFilter_20_);}
	.st88{filter:url(#Adobe_OpacityMaskFilter_21_);}
	.st89{mask:url(#SVGID_62_);fill:url(#SVGID_63_);}
	.st90{fill:url(#SVGID_64_);}
</style>
<g>
	<path class="st0" d="M209.82,388.53c0,1.61-8.66,2.92-19.34,2.92c-10.68,0-19.34-1.31-19.34-2.92s8.66-2.92,19.34-2.92
		C201.16,385.61,209.82,386.91,209.82,388.53z"/>
	<path class="st0" d="M322.71,388.53c0,1.61-14.06,2.92-31.41,2.92c-17.35,0-31.41-1.31-31.41-2.92s14.06-2.92,31.41-2.92
		C308.64,385.61,322.71,386.91,322.71,388.53z"/>
	<path class="st0" d="M411.61,388.53c0,1.61-18.48,2.92-41.28,2.92s-41.27-1.31-41.27-2.92s18.48-2.92,41.27-2.92
		S411.61,386.91,411.61,388.53z"/>
	<path class="st1" d="M207.69,257.03c0,0-8.11,0.38-13.2,7.05c-5.09,6.67-5.67,10.76-2.42,14.43c3.25,3.67,19.69,16.6,19.69,16.6
		s9.84-13.33,8.93-21.35C219.76,265.76,207.69,257.03,207.69,257.03z"/>
	<linearGradient id="SVGID_1_" gradientUnits="userSpaceOnUse" x1="93.3018" y1="229.0438" x2="103.8978" y2="283.1145">
		<stop  offset="1.033400e-04" style="stop-color:#B2E065"/>
		<stop  offset="1" style="stop-color:#5D9C82"/>
	</linearGradient>
	<path class="st2" d="M87.46,248.87l-6.12,21.58c9.48,4.2,19.98,8.59,32.27,8.45l6.12-17.44
		C107.64,259.33,96.81,255.23,87.46,248.87z"/>
	
		<ellipse transform="matrix(0.2739 -0.9618 0.9618 0.2739 -183.7419 289.9397)" class="st3" cx="100.15" cy="266.66" rx="6.86" ry="6.86"/>
	<g>
		
			<linearGradient id="SVGID_2_" gradientUnits="userSpaceOnUse" x1="-896.9783" y1="1430.2069" x2="-897.8327" y2="1471.6445" gradientTransform="matrix(0.9192 -0.3937 0.3937 0.9192 353.1767 -1421.4415)">
			<stop  offset="1.033400e-04" style="stop-color:#B2E065"/>
			<stop  offset="1" style="stop-color:#5D9C82"/>
		</linearGradient>
		<path class="st4" d="M99.68,270.54l-0.5,1.4l-1.62-0.57l0.51-1.44c-0.78-0.52-1.23-1.24-1.37-2.16l1.62-0.52
			c0.18,0.73,0.58,1.2,1.2,1.42c0.46,0.16,0.74,0.11,0.84-0.16c0.04-0.11,0.02-0.22-0.05-0.33c-0.07-0.11-0.22-0.25-0.44-0.43
			l-0.66-0.51c-0.49-0.39-0.83-0.82-1-1.27c-0.17-0.46-0.18-0.92-0.02-1.38c0.16-0.46,0.45-0.81,0.85-1.05
			c0.4-0.24,0.87-0.34,1.39-0.3l0.48-1.37l1.62,0.57l-0.48,1.35c0.66,0.44,1.05,1.07,1.17,1.9l-1.62,0.52
			c-0.15-0.57-0.45-0.94-0.89-1.1c-0.35-0.12-0.57-0.07-0.65,0.15c-0.06,0.18,0.07,0.4,0.4,0.66l0.75,0.56
			c1.03,0.82,1.38,1.71,1.04,2.66c-0.19,0.53-0.51,0.92-0.98,1.16C100.83,270.54,100.29,270.62,99.68,270.54z"/>
	</g>
	<path class="st3" d="M87.88,273.26c0.37,0.15,0.74,0.3,1.11,0.44l6.15-20.28c-0.36-0.18-0.71-0.37-1.07-0.56L87.88,273.26z"/>
	<path class="st3" d="M108.02,278.66l5.6-18.47c-0.39-0.09-0.77-0.19-1.15-0.29l-5.65,18.63
		C107.22,278.58,107.62,278.62,108.02,278.66z"/>
	<polygon class="st5" points="163.47,267.07 216.21,315.21 219.29,326.89 177.01,375.27 109.84,322.87 108.5,312.87 110.64,309.22 
		107.5,307.46 107.5,298.9 	"/>
	<defs>
		<filter id="Adobe_OpacityMaskFilter" filterUnits="userSpaceOnUse" x="107.5" y="267.07" width="111.79" height="108.2">
			<feFlood  style="flood-color:white;flood-opacity:1" result="back"/>
			<feBlend  in="SourceGraphic" in2="back" mode="normal"/>
		</filter>
	</defs>
	<mask maskUnits="userSpaceOnUse" x="107.5" y="267.07" width="111.79" height="108.2" id="SVGID_3_">
		<g class="st6">
			<defs>
				<filter id="Adobe_OpacityMaskFilter_1_" filterUnits="userSpaceOnUse" x="107.5" y="267.07" width="111.79" height="108.2">
					<feFlood  style="flood-color:white;flood-opacity:1" result="back"/>
					<feBlend  in="SourceGraphic" in2="back" mode="normal"/>
				</filter>
			</defs>
			<mask maskUnits="userSpaceOnUse" x="107.5" y="267.07" width="111.79" height="108.2" id="SVGID_3_">
				<g class="st7">
				</g>
			</mask>
			<linearGradient id="SVGID_4_" gradientUnits="userSpaceOnUse" x1="55.7623" y1="396.3969" x2="390.6508" y2="166.7417">
				<stop  offset="0" style="stop-color:#000000"/>
				<stop  offset="1" style="stop-color:#FFFFFF"/>
			</linearGradient>
			<polygon class="st8" points="163.47,267.07 216.21,315.21 219.29,326.89 177.01,375.27 109.84,322.87 108.5,312.87 
				110.64,309.22 107.5,307.46 107.5,298.9 			"/>
		</g>
	</mask>
	<linearGradient id="SVGID_5_" gradientUnits="userSpaceOnUse" x1="55.7623" y1="396.3969" x2="390.6508" y2="166.7417">
		<stop  offset="0" style="stop-color:#3438DE"/>
		<stop  offset="1" style="stop-color:#F23F14"/>
	</linearGradient>
	<polygon class="st9" points="163.47,267.07 216.21,315.21 219.29,326.89 177.01,375.27 109.84,322.87 108.5,312.87 110.64,309.22 
		107.5,307.46 107.5,298.9 	"/>
	<path class="st5" d="M218.09,313.68l-5.39-4.6c2.79-4.33,9.62-16.02,6.58-22.5c-3.78-8.06-17.06-26.24-22.93-26.01
		c-4.97,0.2-19.79,10.67-24.2,13.86l-8.63-7.37l1.18,13.08l-45.61,38.68l64.29,53.44l38.34-44.05L218.09,313.68z M177.87,279.31
		c3.47-3.4,12.75-12.11,15.68-10.93c3.64,1.46,21.53,22.88,21.15,24.92c-0.32,1.71-5.97,8.63-7.79,10.83L177.87,279.31z"/>
	<defs>
		<filter id="Adobe_OpacityMaskFilter_2_" filterUnits="userSpaceOnUse" x="119.1" y="260.57" width="102.63" height="111.69">
			<feFlood  style="flood-color:white;flood-opacity:1" result="back"/>
			<feBlend  in="SourceGraphic" in2="back" mode="normal"/>
		</filter>
	</defs>
	<mask maskUnits="userSpaceOnUse" x="119.1" y="260.57" width="102.63" height="111.69" id="SVGID_6_">
		<g class="st10">
			<defs>
				<filter id="Adobe_OpacityMaskFilter_3_" filterUnits="userSpaceOnUse" x="119.1" y="260.57" width="102.63" height="111.69">
					<feFlood  style="flood-color:white;flood-opacity:1" result="back"/>
					<feBlend  in="SourceGraphic" in2="back" mode="normal"/>
				</filter>
			</defs>
			<mask maskUnits="userSpaceOnUse" x="119.1" y="260.57" width="102.63" height="111.69" id="SVGID_6_">
				<g class="st11">
				</g>
			</mask>
			<linearGradient id="SVGID_7_" gradientUnits="userSpaceOnUse" x1="119.4608" y1="409.1366" x2="334.556" y2="47.7247">
				<stop  offset="0" style="stop-color:#000000"/>
				<stop  offset="1" style="stop-color:#FFFFFF"/>
			</linearGradient>
			<path class="st12" d="M218.09,313.68l-5.39-4.6c2.79-4.33,9.62-16.02,6.58-22.5c-3.78-8.06-17.06-26.24-22.93-26.01
				c-4.97,0.2-19.79,10.67-24.2,13.86l-8.63-7.37l1.18,13.08l-45.61,38.68l64.29,53.44l38.34-44.05L218.09,313.68z M177.87,279.31
				c3.47-3.4,12.75-12.11,15.68-10.93c3.64,1.46,21.53,22.88,21.15,24.92c-0.32,1.71-5.97,8.63-7.79,10.83L177.87,279.31z"/>
		</g>
	</mask>
	<linearGradient id="SVGID_8_" gradientUnits="userSpaceOnUse" x1="119.4608" y1="409.1366" x2="334.556" y2="47.7247">
		<stop  offset="0" style="stop-color:#3438DE"/>
		<stop  offset="1" style="stop-color:#F23F14"/>
	</linearGradient>
	<path class="st13" d="M218.09,313.68l-5.39-4.6c2.79-4.33,9.62-16.02,6.58-22.5c-3.78-8.06-17.06-26.24-22.93-26.01
		c-4.97,0.2-19.79,10.67-24.2,13.86l-8.63-7.37l1.18,13.08l-45.61,38.68l64.29,53.44l38.34-44.05L218.09,313.68z M177.87,279.31
		c3.47-3.4,12.75-12.11,15.68-10.93c3.64,1.46,21.53,22.88,21.15,24.92c-0.32,1.71-5.97,8.63-7.79,10.83L177.87,279.31z"/>
	<path class="st14" d="M209.46,343.29c-0.09,0-0.19-0.01-0.29-0.04c-21.41-6.44-36.66-19.68-45.69-29.64
		c-9.78-10.8-14.43-19.94-14.62-20.32c-0.25-0.49-0.05-1.08,0.44-1.33c0.49-0.25,1.08-0.05,1.33,0.44
		c0.05,0.09,4.75,9.33,14.37,19.93c8.85,9.76,23.8,22.73,44.75,29.03c0.52,0.16,0.82,0.71,0.66,1.23
		C210.27,343.01,209.88,343.29,209.46,343.29z"/>
	<polygon class="st14" points="108.5,312.87 137.41,291 107.5,307.46 110.64,309.22 	"/>
	<path class="st14" d="M181.89,369.68l-60.65-51.38l42.8-37.56c0.21-0.19,0.33-0.45,0.34-0.73l0.13-11.98l-1.05-0.96l-0.93,0.53
		l-0.13,11.95l-43.33,38.02c-0.22,0.19-0.34,0.46-0.34,0.75c0,0.29,0.13,0.56,0.35,0.75l61.5,52.11L181.89,369.68z"/>
	<polygon class="st15" points="147.88,336.32 141.86,343.03 157,354.88 163.65,349.64 	"/>
	<polygon class="st3" points="148.45,339.48 145.66,342.59 152.67,348.07 155.75,345.65 	"/>
	<polygon class="st3" points="156.75,346.29 153.55,348.67 158.2,352.11 161.46,349.86 	"/>
	<path class="st16" d="M183.95,273.77c6.1,8.39,17.97,21.71,26.63,25.79c0,0,8.91-7.78,8.01-14.04c-0.89-6.26-5.91-2.61-5.91-2.61
		s1.97-4.14-0.61-5.63c-2.58-1.49-4.61,0.81-4.61,0.81s2.66-4.61-0.12-6.58c-2.78-1.97-6.66,2.72-6.66,2.72s3.18-8.47-0.41-10.17
		C196.68,262.37,183.95,273.77,183.95,273.77z"/>
	<path class="st1" d="M217.25,282.44c-3.71,4.96-8.39,9.18-13.69,12.38c-0.03,0.02-0.05,0.04-0.08,0.06
		c0.55,0.45,1.11,0.88,1.65,1.29c5.06-3.16,9.52-7.19,13.18-11.9C218.06,283.4,217.68,282.81,217.25,282.44z"/>
	<path class="st1" d="M207.46,278.09c0,0-6.14,7.65-9.98,11.37c0.47,0.47,0.95,0.92,1.42,1.38c4.25-4.1,8.05-8.65,11.36-13.54
		c0.12-0.17,0.16-0.34,0.17-0.5C208.68,276.72,207.46,278.09,207.46,278.09z"/>
	<path class="st1" d="M201.18,271.43c-3.23,3.83-6.94,7.25-11.03,10.14c0.43,0.5,0.86,0.99,1.3,1.49
		c4.12-2.94,7.87-6.37,11.13-10.24c0.15-0.18,0.24-0.39,0.27-0.6c-1.25,0.91-2.16,2-2.16,2s0.5-1.33,0.88-3.04
		C201.42,271.23,201.28,271.31,201.18,271.43z"/>
	<path class="st1" d="M201.92,268.98c0.08-0.82,0.09-1.64-0.03-2.38c-1.05,0.77-2.16,1.47-3.32,2.05c-0.58,0.29-1.16,0.6-1.78,0.76
		c-0.18,0.05-0.18,0.03-0.3,0.05c-0.06,0.01-0.18-0.01-0.13,0.01c-0.05-0.03-0.08-0.05-0.09-0.05c-0.01-0.01-0.01-0.01-0.02-0.02
		c-0.01-0.03-0.02-0.04-0.03-0.05c-0.01-0.03-0.02-0.06-0.03-0.08c-0.01-0.03-0.01-0.06-0.02-0.09c0,0,0-0.03,0-0.1
		c0-0.03,0.02-0.31,0.01-0.29c0.04-0.29,0.14-0.58,0.23-0.86c0.2-0.57,0.49-1.11,0.81-1.63c0.54-0.87,1.21-1.65,1.91-2.39
		c-0.97,0.08-2.21,0.56-3.56,1.28c-0.58,0.9-1.04,1.87-1.27,2.91c-0.28,1.28,0.01,2.75,1.39,3.23c1.24,0.43,2.61-0.34,3.69-0.87
		C200.27,270.02,201.11,269.52,201.92,268.98z"/>
	<path class="st1" d="M204.64,272.75c0.42-0.61,0.98-1.2,1.57-1.69c-1.32-0.19-2.73,0.64-3.8,1.5c-0.42,0.73-0.74,1.51-0.95,2.33
		c-0.19,0.74-0.19,1.54,0.22,2.21c0.46,0.74,1.29,1.01,2.12,0.88c0.68-0.11,1.31-0.48,1.9-0.81c0.54-0.31,1.07-0.65,1.57-1.03
		c0.44-0.32,0.85-0.67,1.26-1.02c0.14-0.84,0.13-1.73-0.24-2.5c-1.14,1.2-2.45,2.22-3.91,3.02c-0.2,0.11-0.41,0.23-0.61,0.31
		c-0.09,0.04-0.2,0.07-0.3,0.09c-0.02,0-0.07,0-0.1,0c-0.01-0.03-0.04-0.1-0.04-0.09c-0.03-0.16,0.03-0.45,0.09-0.67
		C203.67,274.36,204.08,273.55,204.64,272.75z M203.36,276.05C203.4,276.08,203.35,276.11,203.36,276.05L203.36,276.05z"/>
	<path class="st16" d="M223.41,273.14l-0.04,4.65c0,0,2.75,15.03-4.08,16.14c-6.82,1.11-22.74-10.94-20.75-15.25
		c1.99-4.31,12.6,4.9,12.6,4.9s-0.66-16.73,5.2-15.07C222.19,270.15,223.41,273.14,223.41,273.14z"/>
	<path class="st1" d="M216.12,293.15c-2.01-1.26-4.02-2.53-6.02-3.79c-2.03-1.28-4.07-2.56-5.96-4.04
		c-1.59-1.24-3.26-2.74-4.01-4.66c-0.19-0.48-0.47-1.46,0.12-1.71c0.34-0.14,0.78,0.01,1.09,0.15c0.56,0.24,1.08,0.58,1.61,0.88
		c2.44,1.42,4.78,3,7.12,4.58c0.59,0.4,1.56-0.12,1.49-0.85c-0.53-5.66,1.05-11.35,4.43-15.92c0.32-0.43,0.07-1.1-0.35-1.35
		c-0.5-0.29-1.03-0.08-1.35,0.35c-3.55,4.82-5.26,10.96-4.7,16.92c0.5-0.28,0.99-0.57,1.49-0.85c-2.31-1.56-4.63-3.13-7.04-4.53
		c-1.12-0.66-2.38-1.52-3.74-1.38c-1.32,0.13-2.21,1.1-2.33,2.4c-0.11,1.13,0.37,2.25,0.92,3.21c0.6,1.04,1.41,1.98,2.28,2.81
		c1.91,1.82,4.16,3.3,6.38,4.72c2.48,1.59,7.48,4.71,7.48,4.71l0.89-1.09C215.9,293.69,216.33,293.28,216.12,293.15z"/>
	<path class="st1" d="M204.08,285.91c0.82-1.5,0.52-3.37-0.48-4.71c-1.07-1.42-2.65-2.19-4.27-2.82c-0.48-0.19-1.11,0.21-1.22,0.69
		c-0.13,0.57,0.17,1.01,0.69,1.22c0.16,0.06,0.31,0.12,0.47,0.19c-0.13-0.06,0.07,0.03,0.09,0.04c0.08,0.03,0.15,0.07,0.23,0.1
		c0.3,0.14,0.6,0.29,0.89,0.46c0.14,0.08,0.29,0.17,0.42,0.26c0.08,0.06,0.16,0.11,0.24,0.17c0.04,0.03,0.12,0.09,0.04,0.03
		c0.27,0.22,0.52,0.46,0.74,0.72c0.11,0.12-0.12-0.18,0.04,0.05c0.04,0.06,0.09,0.13,0.13,0.19c0.08,0.13,0.16,0.27,0.23,0.4
		c0.02,0.03,0.09,0.22,0.03,0.06c0.03,0.07,0.05,0.14,0.08,0.22c0.05,0.15,0.09,0.29,0.12,0.44c0.01,0.04,0.03,0.25,0.01,0.05
		c0.01,0.08,0.01,0.15,0.02,0.23c0.01,0.15,0,0.3-0.01,0.45c-0.01,0.11,0.04-0.13-0.01,0.05c-0.02,0.07-0.03,0.14-0.06,0.22
		c-0.02,0.07-0.04,0.14-0.07,0.21c0.07-0.16-0.03,0.05-0.06,0.09c-0.25,0.45-0.13,1.1,0.35,1.35
		C203.19,286.51,203.82,286.4,204.08,285.91L204.08,285.91z"/>
	<polygon class="st3" points="211,247.94 203.55,257.12 223.36,277.78 235.03,267.8 	"/>
	<polygon class="st17" points="234.34,265.39 220.71,274.45 223.36,277.78 235.03,267.8 	"/>
	<polygon class="st17" points="211,247.94 203.55,257.12 210.11,263.96 221.74,253.83 	"/>
	<path class="st18" d="M320.37,197.05c0,0-39.85-5.34-68.76,7.3c-28.91,12.63-45.26,44.81-45.26,44.81
		c10.23,6.33,18.75,14.02,23.59,24.6c15.16-14.7,30-27.29,42.7-25.83L320.37,197.05z"/>
	<defs>
		<filter id="Adobe_OpacityMaskFilter_4_" filterUnits="userSpaceOnUse" x="206.35" y="195.93" width="114.02" height="77.84">
			<feFlood  style="flood-color:white;flood-opacity:1" result="back"/>
			<feBlend  in="SourceGraphic" in2="back" mode="normal"/>
		</filter>
	</defs>
	<mask maskUnits="userSpaceOnUse" x="206.35" y="195.93" width="114.02" height="77.84" id="SVGID_9_">
		<g class="st19">
			<defs>
				<filter id="Adobe_OpacityMaskFilter_5_" filterUnits="userSpaceOnUse" x="206.35" y="195.93" width="114.02" height="77.84">
					<feFlood  style="flood-color:white;flood-opacity:1" result="back"/>
					<feBlend  in="SourceGraphic" in2="back" mode="normal"/>
				</filter>
			</defs>
			<mask maskUnits="userSpaceOnUse" x="206.35" y="195.93" width="114.02" height="77.84" id="SVGID_9_">
				<g class="st20">
				</g>
			</mask>
			<linearGradient id="SVGID_10_" gradientUnits="userSpaceOnUse" x1="202.6996" y1="196.8596" x2="297.8399" y2="247.4813">
				<stop  offset="0" style="stop-color:#000000"/>
				<stop  offset="1" style="stop-color:#FFFFFF"/>
			</linearGradient>
			<path class="st21" d="M320.37,197.05c0,0-39.85-5.34-68.76,7.3c-28.91,12.63-45.26,44.81-45.26,44.81
				c10.23,6.33,18.75,14.02,23.59,24.6c15.16-14.7,30-27.29,42.7-25.83L320.37,197.05z"/>
		</g>
	</mask>
	<linearGradient id="SVGID_11_" gradientUnits="userSpaceOnUse" x1="202.6996" y1="196.8596" x2="297.8399" y2="247.4813">
		<stop  offset="0" style="stop-color:#3438DE"/>
		<stop  offset="1" style="stop-color:#F23F14"/>
	</linearGradient>
	<path class="st22" d="M320.37,197.05c0,0-39.85-5.34-68.76,7.3c-28.91,12.63-45.26,44.81-45.26,44.81
		c10.23,6.33,18.75,14.02,23.59,24.6c15.16-14.7,30-27.29,42.7-25.83L320.37,197.05z"/>
	<polygon class="st16" points="353.12,360.68 349.49,360.89 339.65,383.46 362,386.35 369.32,359.61 	"/>
	<polygon class="st17" points="346.73,367.07 339.65,383.46 362,386.35 367.11,367.69 	"/>
	<path class="st23" d="M317.2,273.77c0,0,83.24-18.91,95.93,11.89c12.7,30.8-35.95,76.56-35.95,76.56l-27.7-1.34l11.84-48.82
		c0,0-20.32,23-44.89,20.16S317.2,273.77,317.2,273.77z"/>
	<defs>
		<filter id="Adobe_OpacityMaskFilter_6_" filterUnits="userSpaceOnUse" x="305.71" y="268.02" width="109.54" height="94.2">
			<feFlood  style="flood-color:white;flood-opacity:1" result="back"/>
			<feBlend  in="SourceGraphic" in2="back" mode="normal"/>
		</filter>
	</defs>
	<mask maskUnits="userSpaceOnUse" x="305.71" y="268.02" width="109.54" height="94.2" id="SVGID_12_">
		<g class="st24">
			<defs>
				<filter id="Adobe_OpacityMaskFilter_7_" filterUnits="userSpaceOnUse" x="305.71" y="268.02" width="109.54" height="94.2">
					<feFlood  style="flood-color:white;flood-opacity:1" result="back"/>
					<feBlend  in="SourceGraphic" in2="back" mode="normal"/>
				</filter>
			</defs>
			<mask maskUnits="userSpaceOnUse" x="305.71" y="268.02" width="109.54" height="94.2" id="SVGID_12_">
				<g class="st25">
				</g>
			</mask>
			<linearGradient id="SVGID_13_" gradientUnits="userSpaceOnUse" x1="269.717" y1="450.9794" x2="507.5623" y2="59.7957">
				<stop  offset="0" style="stop-color:#000000"/>
				<stop  offset="1" style="stop-color:#FFFFFF"/>
			</linearGradient>
			<path class="st26" d="M317.2,273.77c0,0,83.24-18.91,95.93,11.89c12.7,30.8-35.95,76.56-35.95,76.56l-27.7-1.34l11.84-48.82
				c0,0-20.32,23-44.89,20.16S317.2,273.77,317.2,273.77z"/>
		</g>
	</mask>
	<linearGradient id="SVGID_14_" gradientUnits="userSpaceOnUse" x1="269.717" y1="450.9794" x2="507.5623" y2="59.7957">
		<stop  offset="0" style="stop-color:#3438DE"/>
		<stop  offset="1" style="stop-color:#F23F14"/>
	</linearGradient>
	<path class="st27" d="M317.2,273.77c0,0,83.24-18.91,95.93,11.89c12.7,30.8-35.95,76.56-35.95,76.56l-27.7-1.34l11.84-48.82
		c0,0-20.32,23-44.89,20.16S317.2,273.77,317.2,273.77z"/>
	<path class="st28" d="M360.85,361.44l28.35-69.21c0.07-0.17,0.06-0.36-0.04-0.52c-0.09-0.16-0.25-0.27-0.44-0.29
		c-32.62-4.11-53.41-1.78-74.17,8.31c-0.29,0.14-0.42,0.5-0.27,0.79c0.14,0.29,0.5,0.42,0.79,0.27c20.37-9.9,40.82-12.24,72.74-8.3
		l-28.21,68.88L360.85,361.44z"/>
	<path class="st16" d="M348.85,194.5c0,0-0.34,18.94,6.71,25.08c7.05,6.13,42.55,3.47,42.55,3.47l-2.53-28L348.85,194.5z"/>
	<path class="st29" d="M399.58,193.46c0,0,5.42,5.3,5.78,10.9c0.36,5.59-4.29,15.25-4.2,19.28c0.09,4.03,1.33,9.8,1.33,9.8
		s-10.48-4.62-10.74-15.89c-0.27-11.28,1.86-20.12,1.86-20.12L399.58,193.46z"/>
	<polygon class="st1" points="390.16,219.58 382.65,208.77 380.11,209.61 381.24,219.02 	"/>
	<path class="st29" d="M371.82,209.93c-0.2,0-0.39-0.1-0.5-0.28c-0.11-0.18-0.12-0.41-0.02-0.6l2.27-4.23
		c0.16-0.29,0.51-0.4,0.8-0.24c0.29,0.15,0.4,0.51,0.24,0.8l-1.77,3.3l13.92-0.73c0.33-0.02,0.61,0.23,0.62,0.56
		c0.02,0.33-0.23,0.61-0.56,0.62l-14.97,0.79C371.84,209.93,371.83,209.93,371.82,209.93z"/>
	<path class="st1" d="M352.12,195.06c0,0-1.33,7.53,1.49,10.06c2.81,2.53,5.24,1.84,5.24,1.84s-4.5,2.25-2.85,6.24
		c1.64,3.99-6.18-0.43-6.18-0.43l-2.46-16.22L352.12,195.06z"/>
	<path class="st29" d="M389.53,218.62c-0.17,0-0.33-0.07-0.45-0.21l-5.69-6.66c-0.21-0.25-0.18-0.62,0.07-0.84
		c0.25-0.21,0.62-0.18,0.84,0.07l5.69,6.66c0.21,0.25,0.18,0.62-0.07,0.84C389.8,218.57,389.66,218.62,389.53,218.62z"/>
	<path class="st1" d="M390.49,195.58c-0.05,0.13-8.47,9.53-8.47,9.53l-1.75-1.07l-2.97-8.98L390.49,195.58z"/>
	<path class="st29" d="M382.85,204.94c-0.14,0-0.28-0.05-0.4-0.15c-0.24-0.22-0.26-0.59-0.04-0.84l5.22-5.81
		c0.22-0.24,0.59-0.26,0.84-0.04c0.24,0.22,0.26,0.59,0.04,0.84l-5.22,5.81C383.17,204.88,383.01,204.94,382.85,204.94z"/>
	<path class="st29" d="M369.05,212.26c-0.04,0-0.07,0-0.11-0.01c-0.32-0.06-0.54-0.37-0.48-0.69c0.41-2.23-0.78-9.37-0.79-9.44
		c-0.05-0.32,0.16-0.63,0.49-0.68c0.32-0.05,0.63,0.16,0.68,0.49c0.05,0.3,1.23,7.42,0.78,9.85
		C369.58,212.06,369.33,212.26,369.05,212.26z"/>
	<path class="st29" d="M357.94,207.54c-2.01,0-3.32-0.55-3.38-0.58c-0.3-0.13-0.44-0.48-0.31-0.78c0.13-0.3,0.48-0.44,0.78-0.31l0,0
		c0.02,0.01,1.8,0.74,4.33,0.38c0.32-0.05,0.62,0.18,0.67,0.5c0.05,0.32-0.18,0.62-0.5,0.67
		C358.96,207.51,358.43,207.54,357.94,207.54z"/>
	<path class="st29" d="M380.83,217.92c-0.27,0-0.51-0.18-0.58-0.45l-1.13-4.57c-0.08-0.32,0.12-0.64,0.43-0.72
		c0.32-0.08,0.64,0.12,0.72,0.43l1.13,4.57c0.08,0.32-0.12,0.64-0.43,0.72C380.92,217.91,380.88,217.92,380.83,217.92z"/>
	<path class="st29" d="M380.11,203.22c-0.06,0-0.12-0.01-0.18-0.03c-0.31-0.1-0.49-0.43-0.39-0.74l1.13-3.57
		c0.1-0.31,0.43-0.49,0.74-0.39c0.31,0.1,0.49,0.43,0.39,0.74l-1.13,3.57C380.6,203.06,380.36,203.22,380.11,203.22z"/>
	<path class="st1" d="M350.9,192.99c-2.32,5.41-1.12,11.32,2.37,17.54h-7.8l-10.95-14.76L350.9,192.99z"/>
	<path class="st3" d="M342.17,192.21c4.29,5.29,7.54,11.45,8.93,19.15l-5.62-0.83l-10.95-14.76L342.17,192.21z"/>
	<polygon class="st16" points="221.75,342.3 216.32,338.77 199.87,333.51 205.39,358.25 221.75,369.27 	"/>
	<polygon class="st17" points="213.1,337.74 199.87,333.51 197.61,354.15 207.24,359.5 	"/>
	<path class="st18" d="M317.77,284.1l3.29,5.35c0,0,9.49,33.54,9.49,62.28c0,28.74-6.2,35.54-35.51,36.74
		c-29.31,1.2-83.9-20.4-83.9-20.4l5.18-29.31l52.41,8.64c0,0-13.53-16.74-9.58-31.01C263.1,302.14,317.77,284.1,317.77,284.1z"/>
	<defs>
		<filter id="Adobe_OpacityMaskFilter_8_" filterUnits="userSpaceOnUse" x="211.14" y="284.1" width="119.4" height="104.42">
			<feFlood  style="flood-color:white;flood-opacity:1" result="back"/>
			<feBlend  in="SourceGraphic" in2="back" mode="normal"/>
		</filter>
	</defs>
	<mask maskUnits="userSpaceOnUse" x="211.14" y="284.1" width="119.4" height="104.42" id="SVGID_15_">
		<g class="st30">
			<defs>
				<filter id="Adobe_OpacityMaskFilter_9_" filterUnits="userSpaceOnUse" x="211.14" y="284.1" width="119.4" height="104.42">
					<feFlood  style="flood-color:white;flood-opacity:1" result="back"/>
					<feBlend  in="SourceGraphic" in2="back" mode="normal"/>
				</filter>
			</defs>
			<mask maskUnits="userSpaceOnUse" x="211.14" y="284.1" width="119.4" height="104.42" id="SVGID_15_">
				<g class="st31">
				</g>
			</mask>
			<linearGradient id="SVGID_16_" gradientUnits="userSpaceOnUse" x1="268.439" y1="452.7377" x2="275.4374" y2="185.5676">
				<stop  offset="0" style="stop-color:#000000"/>
				<stop  offset="1" style="stop-color:#FFFFFF"/>
			</linearGradient>
			<path class="st32" d="M317.77,284.1l3.29,5.35c0,0,9.49,33.54,9.49,62.28c0,28.74-6.2,35.54-35.51,36.74
				c-29.31,1.2-83.9-20.4-83.9-20.4l5.18-29.31l52.41,8.64c0,0-13.53-16.74-9.58-31.01C263.1,302.14,317.77,284.1,317.77,284.1z"/>
		</g>
	</mask>
	<linearGradient id="SVGID_17_" gradientUnits="userSpaceOnUse" x1="268.439" y1="452.7377" x2="275.4374" y2="185.5676">
		<stop  offset="0" style="stop-color:#3438DE"/>
		<stop  offset="1" style="stop-color:#F23F14"/>
	</linearGradient>
	<path class="st33" d="M317.77,284.1l3.29,5.35c0,0,9.49,33.54,9.49,62.28c0,28.74-6.2,35.54-35.51,36.74
		c-29.31,1.2-83.9-20.4-83.9-20.4l5.18-29.31l52.41,8.64c0,0-13.53-16.74-9.58-31.01C263.1,302.14,317.77,284.1,317.77,284.1z"/>
	<path class="st28" d="M213.46,354.93l92.11,20.92c0.04,0.01,0.09,0.01,0.13,0.01c0.16,0,0.31-0.06,0.42-0.17
		c0.14-0.14,0.2-0.35,0.16-0.55l-15.67-67.24c-0.07-0.32-0.39-0.52-0.71-0.44c-0.32,0.07-0.52,0.39-0.44,0.71l15.46,66.32
		l-91.24-20.72L213.46,354.93z"/>
	<path class="st28" d="M296.19,335.02c-0.19,0-0.38-0.09-0.5-0.27c-0.18-0.27-0.1-0.64,0.17-0.82c7.94-5.2,11.92-12.38,11.85-21.35
		c-0.06-6.73-2.51-12.01-2.54-12.06c-0.14-0.3-0.01-0.65,0.28-0.79c0.3-0.14,0.65-0.01,0.79,0.28c0.11,0.22,2.58,5.53,2.65,12.51
		c0.07,6.48-2.03,15.62-12.38,22.4C296.41,334.99,296.3,335.02,296.19,335.02z"/>
	<path class="st34" d="M348.45,210.05c-3.01-5.33-7.12-9.4-11.97-12.64c0,0-46.68-14.43-76.57,16.02
		c-29.88,30.45-23.24,78.79-6.58,117.78c16.67,3.55,52.37-19.79,67.72-41.76C324.44,265.57,336.5,237.79,348.45,210.05z"/>
	<defs>
		<filter id="Adobe_OpacityMaskFilter_10_" filterUnits="userSpaceOnUse" x="239.17" y="194" width="109.28" height="137.58">
			<feFlood  style="flood-color:white;flood-opacity:1" result="back"/>
			<feBlend  in="SourceGraphic" in2="back" mode="normal"/>
		</filter>
	</defs>
	<mask maskUnits="userSpaceOnUse" x="239.17" y="194" width="109.28" height="137.58" id="SVGID_18_">
		<g class="st35">
			<defs>
				<filter id="Adobe_OpacityMaskFilter_11_" filterUnits="userSpaceOnUse" x="239.17" y="194" width="109.28" height="137.58">
					<feFlood  style="flood-color:white;flood-opacity:1" result="back"/>
					<feBlend  in="SourceGraphic" in2="back" mode="normal"/>
				</filter>
			</defs>
			<mask maskUnits="userSpaceOnUse" x="239.17" y="194" width="109.28" height="137.58" id="SVGID_18_">
				<g class="st36">
				</g>
			</mask>
			<linearGradient id="SVGID_19_" gradientUnits="userSpaceOnUse" x1="260.5294" y1="396.356" x2="376.2468" y2="-166.5919">
				<stop  offset="0" style="stop-color:#000000"/>
				<stop  offset="1" style="stop-color:#FFFFFF"/>
			</linearGradient>
			<path class="st37" d="M348.45,210.05c-3.01-5.33-7.12-9.4-11.97-12.64c0,0-46.68-14.43-76.57,16.02
				c-29.88,30.45-23.24,78.79-6.58,117.78c16.67,3.55,52.37-19.79,67.72-41.76C324.44,265.57,336.5,237.79,348.45,210.05z"/>
		</g>
	</mask>
	<linearGradient id="SVGID_20_" gradientUnits="userSpaceOnUse" x1="260.5294" y1="396.356" x2="376.2468" y2="-166.5919">
		<stop  offset="0" style="stop-color:#3438DE"/>
		<stop  offset="1" style="stop-color:#F23F14"/>
	</linearGradient>
	<path class="st38" d="M348.45,210.05c-3.01-5.33-7.12-9.4-11.97-12.64c0,0-46.68-14.43-76.57,16.02
		c-29.88,30.45-23.24,78.79-6.58,117.78c16.67,3.55,52.37-19.79,67.72-41.76C324.44,265.57,336.5,237.79,348.45,210.05z"/>
	<path class="st29" d="M204.6,335.02l-18.13-9.36l-3.59,20.41c0,0,5.74,0.49,5.57,3.67c-0.17,3.18-6.14,2.4-6.14,2.4l-6.02,36.38
		l28.58-0.17c-2.15-4.73-6.58-7.44-11.31-9.89l11.86-20.22C201.77,347.02,201.19,338.95,204.6,335.02z"/>
	<path class="st28" d="M282.81,279.82c-0.26,0-0.49-0.17-0.57-0.42l-2.89-9.5c-0.05-0.17-0.03-0.35,0.07-0.5
		c0.1-0.15,0.25-0.24,0.42-0.27l31.74-3.96c0.17-0.02,0.34,0.03,0.47,0.14c0.13,0.11,0.2,0.27,0.2,0.44v10.23
		c0,0.3-0.23,0.56-0.53,0.59l-28.85,3.22C282.85,279.82,282.83,279.82,282.81,279.82z M280.69,270.23l2.54,8.35l27.83-3.11v-9.03
		L280.69,270.23z"/>
	<linearGradient id="SVGID_21_" gradientUnits="userSpaceOnUse" x1="137.4507" y1="220.3922" x2="148.0467" y2="274.463">
		<stop  offset="1.033400e-04" style="stop-color:#B2E065"/>
		<stop  offset="1" style="stop-color:#5D9C82"/>
	</linearGradient>
	<path class="st39" d="M133.71,247.18c-0.06,11.43,0.65,23.06,5.41,34l17.8-4.69c-2.91-10.2-3.79-20.91-3.15-32L133.71,247.18z"/>
	<linearGradient id="SVGID_22_" gradientUnits="userSpaceOnUse" x1="104.9725" y1="-17.1285" x2="491.2224" y2="326.4542">
		<stop  offset="0" style="stop-color:#9F3FFF"/>
		<stop  offset="1" style="stop-color:#F22907"/>
	</linearGradient>
	<polygon class="st40" points="255.9,197.42 431.21,197.42 493.94,269.69 469.52,272.07 529.67,300.26 510.02,236.74 504.06,261.95 
		447.31,162.52 275.07,146.1 239.17,67.4 163.32,62.85 142.1,12.88 45.13,12.88 113.07,114.95 200.13,114.95 	"/>
	<linearGradient id="SVGID_23_" gradientUnits="userSpaceOnUse" x1="516.8074" y1="309.0282" x2="545.1297" y2="332.9658">
		<stop  offset="1.033400e-04" style="stop-color:#B2E065"/>
		<stop  offset="1" style="stop-color:#5D9C82"/>
	</linearGradient>
	<path class="st41" d="M516.11,318.37l1.49,18.79c10.33,3.44,25.33-0.03,37.27-8.34l-6.58-20.66
		C535.83,317.57,527.22,320.36,516.11,318.37z"/>
	<path class="st16" d="M410.48,214.38c-3.38-4.27-4-10.12-3.72-16.97l8.5-0.36c0,0-2.23-14.08,2.16-17.43
		c4.39-3.35,6.53,0.4,6.53,0.4s-0.32-3.35,3.12-4.22c3.44-0.87,5.41,2.52,5.41,2.52s1.11-2.42,4.38-2.12c3.27,0.3,3.67,4.8,3.67,4.8
		s2.85-2.86,6.46,1.65c3.61,4.51,4.63,16.02-0.24,21.7c-4.87,5.68-12.92,9.48-12.92,9.48L410.48,214.38z"/>
	<path class="st1" d="M447.31,203.62c-2.79,2.01-8.06,4.27-17.33,3.6c-15.97-1.15-14.72-10.18-14.72-10.18l-8.5,0.36
		c-0.28,6.85,0.34,12.7,3.72,16.97l23.35-0.54c0,0,8.05-3.81,12.92-9.48C446.95,204.12,447.13,203.87,447.31,203.62z"/>
	<polygon class="st3" points="406.28,212.44 406.28,226.72 437.27,221.92 437.27,212.44 	"/>
	<polygon class="st17" points="433.67,212.44 433.67,226.72 437.27,221.92 437.27,212.44 	"/>
	<polygon class="st17" points="406.34,212.44 406.34,226.72 415.27,221.92 415.27,212.44 	"/>
	<path class="st34" d="M407.85,243.65l-3.43-21.47l33.33-0.26c0,0,7.38,55.85-11.55,65.32c-18.93,9.46-95.5-12.43-103.43-45.05
		c-7.93-32.62,13.11-40.24,30.79-33.53C371.25,215.36,407.85,243.65,407.85,243.65z"/>
	<defs>
		<filter id="Adobe_OpacityMaskFilter_12_" filterUnits="userSpaceOnUse" x="321.05" y="206.42" width="118.11" height="83.03">
			<feFlood  style="flood-color:white;flood-opacity:1" result="back"/>
			<feBlend  in="SourceGraphic" in2="back" mode="normal"/>
		</filter>
	</defs>
	<mask maskUnits="userSpaceOnUse" x="321.05" y="206.42" width="118.11" height="83.03" id="SVGID_24_">
		<g class="st42">
			<defs>
				<filter id="Adobe_OpacityMaskFilter_13_" filterUnits="userSpaceOnUse" x="321.05" y="206.42" width="118.11" height="83.03">
					<feFlood  style="flood-color:white;flood-opacity:1" result="back"/>
					<feBlend  in="SourceGraphic" in2="back" mode="normal"/>
				</filter>
			</defs>
			<mask maskUnits="userSpaceOnUse" x="321.05" y="206.42" width="118.11" height="83.03" id="SVGID_24_">
				<g class="st43">
				</g>
			</mask>
			<linearGradient id="SVGID_25_" gradientUnits="userSpaceOnUse" x1="348.7537" y1="412.5713" x2="436.5886" y2="-65.7917">
				<stop  offset="0" style="stop-color:#000000"/>
				<stop  offset="1" style="stop-color:#FFFFFF"/>
			</linearGradient>
			<path class="st44" d="M407.85,243.65l-3.43-21.47l33.33-0.26c0,0,7.38,55.85-11.55,65.32c-18.93,9.46-95.5-12.43-103.43-45.05
				c-7.93-32.62,13.11-40.24,30.79-33.53C371.25,215.36,407.85,243.65,407.85,243.65z"/>
		</g>
	</mask>
	<linearGradient id="SVGID_26_" gradientUnits="userSpaceOnUse" x1="348.7537" y1="412.5713" x2="436.5886" y2="-65.7917">
		<stop  offset="0" style="stop-color:#3438DE"/>
		<stop  offset="1" style="stop-color:#F23F14"/>
	</linearGradient>
	<path class="st45" d="M407.85,243.65l-3.43-21.47l33.33-0.26c0,0,7.38,55.85-11.55,65.32c-18.93,9.46-95.5-12.43-103.43-45.05
		c-7.93-32.62,13.11-40.24,30.79-33.53C371.25,215.36,407.85,243.65,407.85,243.65z"/>
	<path class="st1" d="M366.14,206.92c0,2-0.76,3.62-1.69,3.62s-1.08-1.6-1.08-3.59s0.15-3.64,1.08-3.64S366.14,204.93,366.14,206.92
		z"/>
	<path class="st28" d="M417.02,229.59c0,1.58-1.28,2.87-2.87,2.87c-1.58,0-2.87-1.28-2.87-2.87c0-1.58,1.28-2.87,2.87-2.87
		C415.73,226.72,417.02,228,417.02,229.59z"/>
	<path class="st28" d="M417.88,239.32c0,1.58-1.28,2.87-2.87,2.87c-1.58,0-2.87-1.28-2.87-2.87c0-1.58,1.28-2.87,2.87-2.87
		C416.6,236.45,417.88,237.74,417.88,239.32z"/>
	
		<ellipse transform="matrix(0.943 -0.3328 0.3328 0.943 -78.0404 196.7809)" class="st3" cx="535.47" cy="326.23" rx="7.04" ry="7.04"/>
	<circle class="st15" cx="412.64" cy="78.03" r="10.3"/>
	<g>
		<linearGradient id="SVGID_27_" gradientUnits="userSpaceOnUse" x1="515.8251" y1="310.1904" x2="544.1475" y2="334.1282">
			<stop  offset="1.033400e-04" style="stop-color:#B2E065"/>
			<stop  offset="1" style="stop-color:#5D9C82"/>
		</linearGradient>
		<path class="st46" d="M536.66,329.88l0.27,1.46l-1.69,0.31l-0.27-1.5c-0.93-0.06-1.69-0.46-2.26-1.19l1.15-1.26
			c0.52,0.54,1.1,0.75,1.75,0.63c0.48-0.09,0.7-0.27,0.65-0.55c-0.02-0.12-0.09-0.2-0.2-0.26c-0.12-0.06-0.31-0.11-0.6-0.15
			l-0.83-0.11c-0.62-0.1-1.12-0.3-1.5-0.61c-0.38-0.31-0.61-0.71-0.7-1.19c-0.09-0.48-0.02-0.93,0.21-1.33
			c0.23-0.41,0.58-0.72,1.06-0.96l-0.26-1.43l1.68-0.31l0.26,1.4c0.79,0.05,1.44,0.4,1.96,1.07l-1.15,1.26
			c-0.42-0.42-0.85-0.59-1.31-0.51c-0.37,0.07-0.53,0.22-0.49,0.45c0.03,0.19,0.26,0.31,0.67,0.37l0.93,0.11
			c1.3,0.2,2.04,0.79,2.23,1.79c0.1,0.55,0.01,1.05-0.27,1.49C537.65,329.31,537.23,329.65,536.66,329.88z"/>
	</g>
	<path class="st3" d="M525.36,338.46c0.39,0.01,0.79,0.02,1.19,0.02l-1.98-19.58c-0.39,0.03-0.79,0.05-1.19,0.06L525.36,338.46z"/>
	<path class="st3" d="M541.54,312.84l6.39,20.12c0.36-0.18,0.71-0.36,1.07-0.55l-6.42-20.22
		C542.23,312.41,541.88,312.62,541.54,312.84z"/>
	<linearGradient id="SVGID_28_" gradientUnits="userSpaceOnUse" x1="408.4648" y1="70.6214" x2="407.5823" y2="150.93">
		<stop  offset="1.033400e-04" style="stop-color:#8DFFFF"/>
		<stop  offset="1" style="stop-color:#F2ADFF"/>
	</linearGradient>
	<path class="st47" d="M406.41,86.16c1.13,0.88,2.44,1.52,3.87,1.87V75.78c-1.2-0.45-2.5-0.39-3.87,0V86.16z"/>
	<linearGradient id="SVGID_29_" gradientUnits="userSpaceOnUse" x1="417.3934" y1="70.7194" x2="416.5109" y2="151.0285">
		<stop  offset="1.033400e-04" style="stop-color:#8DFFFF"/>
		<stop  offset="1" style="stop-color:#F2ADFF"/>
	</linearGradient>
	<path class="st48" d="M415.35,87.97c1.44-0.39,2.75-1.08,3.87-2.01V75.78c-1.32-0.4-2.62-0.44-3.87,0V87.97z"/>
	<path class="st49" d="M410.74,77.09c-0.16,0-0.32-0.06-0.44-0.19c-0.52-0.56-1.26-0.89-2.1-0.92c-0.93-0.03-1.88,0.32-2.53,0.95
		c-0.24,0.23-0.61,0.22-0.84-0.02c-0.23-0.24-0.22-0.61,0.02-0.84c0.89-0.85,2.12-1.31,3.39-1.27c1.16,0.04,2.2,0.5,2.93,1.3
		c0.22,0.24,0.2,0.62-0.04,0.84C411.03,77.04,410.88,77.09,410.74,77.09z"/>
	<path class="st49" d="M420.02,77.09c-0.16,0-0.32-0.06-0.44-0.19c-0.52-0.56-1.26-0.89-2.1-0.92c-0.93-0.03-1.88,0.32-2.53,0.95
		c-0.24,0.23-0.61,0.22-0.84-0.02c-0.23-0.24-0.22-0.61,0.02-0.84c0.89-0.85,2.12-1.31,3.39-1.27c1.16,0.04,2.2,0.5,2.93,1.3
		c0.22,0.24,0.2,0.62-0.04,0.84C420.31,77.04,420.16,77.09,420.02,77.09z"/>
	<path class="st49" d="M414.84,80.16c0,1.46-0.92,2.64-2.05,2.64s-2.05-1.18-2.05-2.64c0-1.46,0.92-1.95,2.05-1.95
		S414.84,78.71,414.84,80.16z"/>
	
		<ellipse transform="matrix(0.2308 -0.973 0.973 0.2308 218.1754 479.9616)" class="st15" cx="412.64" cy="101.99" rx="10.3" ry="10.3"/>
	<linearGradient id="SVGID_30_" gradientUnits="userSpaceOnUse" x1="408.7282" y1="70.6244" x2="407.8457" y2="150.933">
		<stop  offset="1.033400e-04" style="stop-color:#8DFFFF"/>
		<stop  offset="1" style="stop-color:#F2ADFF"/>
	</linearGradient>
	<path class="st50" d="M406.41,110.13c1.13,0.88,2.44,1.52,3.87,1.87V99.74c-1.2-0.45-2.5-0.39-3.87,0V110.13z"/>
	<linearGradient id="SVGID_31_" gradientUnits="userSpaceOnUse" x1="417.7371" y1="70.7234" x2="416.8546" y2="151.0318">
		<stop  offset="1.033400e-04" style="stop-color:#8DFFFF"/>
		<stop  offset="1" style="stop-color:#F2ADFF"/>
	</linearGradient>
	<path class="st51" d="M415.43,111.93c1.44-0.39,2.75-1.08,3.87-2.01V99.74c-1.32-0.4-2.62-0.44-3.87,0V111.93z"/>
	<path class="st49" d="M410.74,101.06c-0.16,0-0.32-0.06-0.44-0.19c-0.52-0.56-1.26-0.89-2.1-0.92c-0.93-0.03-1.88,0.32-2.53,0.95
		c-0.24,0.23-0.61,0.22-0.84-0.02c-0.23-0.24-0.22-0.61,0.02-0.84c0.89-0.85,2.12-1.31,3.39-1.27c1.16,0.04,2.2,0.5,2.93,1.3
		c0.22,0.24,0.2,0.62-0.04,0.84C411.03,101.01,410.88,101.06,410.74,101.06z"/>
	<path class="st49" d="M420.02,101.06c-0.16,0-0.32-0.06-0.44-0.19c-0.52-0.56-1.26-0.89-2.1-0.92c-0.93-0.03-1.88,0.32-2.53,0.95
		c-0.24,0.23-0.61,0.22-0.84-0.02c-0.23-0.24-0.22-0.61,0.02-0.84c0.89-0.85,2.12-1.31,3.39-1.27c1.16,0.04,2.2,0.5,2.93,1.3
		c0.22,0.24,0.2,0.62-0.04,0.84C420.31,101.01,420.16,101.06,420.02,101.06z"/>
	<path class="st49" d="M414.84,104.13c0,1.46-0.92,2.64-2.05,2.64s-2.05-1.18-2.05-2.64s0.92-1.95,2.05-1.95
		S414.84,102.67,414.84,104.13z"/>
	<circle class="st15" cx="412.64" cy="125.96" r="10.3"/>
	<linearGradient id="SVGID_32_" gradientUnits="userSpaceOnUse" x1="408.9915" y1="70.6269" x2="408.109" y2="150.936">
		<stop  offset="1.033400e-04" style="stop-color:#8DFFFF"/>
		<stop  offset="1" style="stop-color:#F2ADFF"/>
	</linearGradient>
	<path class="st52" d="M406.41,134.1c1.13,0.88,2.44,1.52,3.87,1.87v-12.26c-1.2-0.45-2.5-0.39-3.87,0V134.1z"/>
	<linearGradient id="SVGID_33_" gradientUnits="userSpaceOnUse" x1="418.0004" y1="70.7264" x2="417.1179" y2="151.0348">
		<stop  offset="1.033400e-04" style="stop-color:#8DFFFF"/>
		<stop  offset="1" style="stop-color:#F2ADFF"/>
	</linearGradient>
	<path class="st53" d="M415.43,135.9c1.44-0.39,2.75-1.08,3.87-2.01v-10.18c-1.32-0.4-2.62-0.44-3.87,0V135.9z"/>
	<path class="st49" d="M410.74,125.02c-0.16,0-0.32-0.06-0.44-0.19c-0.52-0.56-1.26-0.89-2.1-0.92c-0.94-0.03-1.88,0.32-2.53,0.95
		c-0.24,0.23-0.61,0.22-0.84-0.02c-0.23-0.24-0.22-0.61,0.02-0.84c0.89-0.85,2.12-1.32,3.39-1.27c1.16,0.04,2.2,0.5,2.93,1.3
		c0.22,0.24,0.2,0.62-0.04,0.84C411.03,124.97,410.88,125.02,410.74,125.02z"/>
	<path class="st49" d="M420.02,125.02c-0.16,0-0.32-0.06-0.44-0.19c-0.52-0.56-1.26-0.89-2.1-0.92c-0.94-0.03-1.88,0.32-2.53,0.95
		c-0.24,0.23-0.61,0.22-0.84-0.02c-0.23-0.24-0.22-0.61,0.02-0.84c0.89-0.85,2.12-1.32,3.39-1.27c1.16,0.04,2.2,0.5,2.93,1.3
		c0.22,0.24,0.2,0.62-0.04,0.84C420.31,124.97,420.16,125.02,420.02,125.02z"/>
	<path class="st49" d="M414.84,128.09c0,1.46-0.92,2.64-2.05,2.64s-2.05-1.18-2.05-2.64s0.92-1.95,2.05-1.95
		S414.84,126.64,414.84,128.09z"/>
	<path class="st14" d="M213.55,323.33c-0.22,0-0.45-0.08-0.63-0.23l-43.81-36.68c-0.42-0.35-0.47-0.97-0.12-1.39
		c0.35-0.42,0.97-0.47,1.39-0.12l43.81,36.68c0.42,0.35,0.47,0.97,0.12,1.39C214.11,323.21,213.83,323.33,213.55,323.33z"/>
	<path class="st29" d="M365.92,372.02c0,0-6.01,2.83-13.48,2.31c-7.47-0.52-6.83-4.68-6.83-4.68l-14.51,18.87l19.11-0.01
		c0,0,1.11-3.89,2.91-4.02c1.8-0.13,3.34,4.02,3.34,4.02l55.16-0.03c0,0-1.97-3.03-5.77-4.42c-3.8-1.4-6.54-2.03-18.25-4.61
		C375.88,376.87,365.92,372.02,365.92,372.02z"/>
	<path class="st3" d="M150.69,266.55c-2.19,3.1-6.47,3.83-9.56,1.64c-3.1-2.19-3.83-6.47-1.64-9.56c2.19-3.1,6.47-3.83,9.56-1.64
		C152.14,259.18,152.88,263.46,150.69,266.55z"/>
	<g>
		
			<linearGradient id="SVGID_34_" gradientUnits="userSpaceOnUse" x1="682.5209" y1="-1948.8075" x2="681.6664" y2="-1907.3696" gradientTransform="matrix(0.8167 0.577 -0.577 0.8167 -1523.8864 1442.5715)">
			<stop  offset="1.033400e-04" style="stop-color:#B2E065"/>
			<stop  offset="1" style="stop-color:#5D9C82"/>
		</linearGradient>
		<path class="st54" d="M141.53,264.22l-1.45,0.31l-0.36-1.68l1.49-0.32c0.04-0.93,0.41-1.7,1.13-2.3l1.3,1.11
			c-0.53,0.53-0.72,1.12-0.58,1.77c0.1,0.48,0.29,0.69,0.57,0.63c0.12-0.02,0.2-0.1,0.25-0.21c0.05-0.12,0.1-0.32,0.13-0.6
			l0.09-0.83c0.08-0.62,0.26-1.13,0.56-1.52c0.3-0.39,0.69-0.63,1.17-0.74c0.48-0.1,0.93-0.04,1.34,0.18
			c0.41,0.22,0.74,0.56,0.99,1.03l1.42-0.3l0.36,1.68l-1.4,0.3c-0.02,0.79-0.36,1.46-1.01,1.99l-1.3-1.11
			c0.41-0.43,0.57-0.87,0.47-1.33c-0.08-0.36-0.23-0.52-0.47-0.47c-0.19,0.04-0.3,0.27-0.35,0.68l-0.08,0.93
			c-0.16,1.31-0.73,2.07-1.73,2.28c-0.55,0.12-1.05,0.04-1.5-0.23C142.13,265.2,141.78,264.78,141.53,264.22z"/>
	</g>
	<linearGradient id="SVGID_35_" gradientUnits="userSpaceOnUse" x1="174.3268" y1="130.3369" x2="182.3761" y2="207.8412">
		<stop  offset="1.033400e-04" style="stop-color:#8DFFFF"/>
		<stop  offset="1" style="stop-color:#F2ADFF"/>
	</linearGradient>
	<path class="st55" d="M178.14,183.65c-0.33,0-0.59-0.27-0.59-0.59v-32.08c0-0.33,0.27-0.59,0.59-0.59c0.33,0,0.59,0.27,0.59,0.59
		v32.08C178.73,183.39,178.46,183.65,178.14,183.65z"/>
	<linearGradient id="SVGID_36_" gradientUnits="userSpaceOnUse" x1="166.2572" y1="131.175" x2="174.3065" y2="208.6792">
		<stop  offset="1.033400e-04" style="stop-color:#8DFFFF"/>
		<stop  offset="1" style="stop-color:#F2ADFF"/>
	</linearGradient>
	<path class="st56" d="M170.1,178.62c-0.33,0-0.59-0.27-0.59-0.59v-19.75c0-0.33,0.27-0.59,0.59-0.59c0.33,0,0.59,0.27,0.59,0.59
		v19.75C170.69,178.36,170.43,178.62,170.1,178.62z"/>
	<linearGradient id="SVGID_37_" gradientUnits="userSpaceOnUse" x1="168.4928" y1="130.9429" x2="176.5421" y2="208.4473">
		<stop  offset="1.033400e-04" style="stop-color:#8DFFFF"/>
		<stop  offset="1" style="stop-color:#F2ADFF"/>
	</linearGradient>
	<path class="st57" d="M170.1,151.93c-0.33,0-0.59-0.27-0.59-0.59v-9.88c0-0.33,0.27-0.59,0.59-0.59c0.33,0,0.59,0.27,0.59,0.59
		v9.88C170.69,151.66,170.43,151.93,170.1,151.93z"/>
	<linearGradient id="SVGID_38_" gradientUnits="userSpaceOnUse" x1="156.5663" y1="123.0325" x2="164.6156" y2="200.5369">
		<stop  offset="1.033400e-04" style="stop-color:#8DFFFF"/>
		<stop  offset="1" style="stop-color:#F2ADFF"/>
	</linearGradient>
	<path class="st58" d="M162.27,185.35c-0.33,0-0.59-0.27-0.59-0.59v-13.54c0-0.33,0.27-0.59,0.59-0.59c0.33,0,0.59,0.27,0.59,0.59
		v13.54C162.87,185.08,162.6,185.35,162.27,185.35z"/>
	<linearGradient id="SVGID_39_" gradientUnits="userSpaceOnUse" x1="158.0986" y1="122.8731" x2="166.148" y2="200.3777">
		<stop  offset="1.033400e-04" style="stop-color:#8DFFFF"/>
		<stop  offset="1" style="stop-color:#F2ADFF"/>
	</linearGradient>
	<path class="st59" d="M162.27,167.05c-0.33,0-0.59-0.27-0.59-0.59v-6.77c0-0.33,0.27-0.59,0.59-0.59c0.33,0,0.59,0.27,0.59,0.59
		v6.77C162.87,166.79,162.6,167.05,162.27,167.05z"/>
	<linearGradient id="SVGID_40_" gradientUnits="userSpaceOnUse" x1="119.4565" y1="121.5728" x2="125.7362" y2="172.0957">
		<stop  offset="1.033400e-04" style="stop-color:#8DFFFF"/>
		<stop  offset="1" style="stop-color:#F2ADFF"/>
	</linearGradient>
	<path class="st60" d="M121.95,152.51c-0.33,0-0.59-0.27-0.59-0.59v-20.6c0-0.33,0.27-0.59,0.59-0.59s0.59,0.27,0.59,0.59v20.6
		C122.54,152.25,122.28,152.51,121.95,152.51z"/>
	<linearGradient id="SVGID_41_" gradientUnits="userSpaceOnUse" x1="113.0096" y1="122.3741" x2="119.2893" y2="172.8969">
		<stop  offset="1.033400e-04" style="stop-color:#8DFFFF"/>
		<stop  offset="1" style="stop-color:#F2ADFF"/>
	</linearGradient>
	<path class="st61" d="M116.4,158.29c-0.33,0-0.59-0.27-0.59-0.59v-16.07c0-0.33,0.27-0.59,0.59-0.59c0.33,0,0.59,0.27,0.59,0.59
		v16.07C116.99,158.02,116.73,158.29,116.4,158.29z"/>
	<linearGradient id="SVGID_42_" gradientUnits="userSpaceOnUse" x1="107.3119" y1="123.0825" x2="113.5916" y2="173.6049">
		<stop  offset="1.033400e-04" style="stop-color:#8DFFFF"/>
		<stop  offset="1" style="stop-color:#F2ADFF"/>
	</linearGradient>
	<path class="st62" d="M110.24,152.77c-0.33,0-0.59-0.27-0.59-0.59v-11.02c0-0.33,0.27-0.59,0.59-0.59c0.33,0,0.59,0.27,0.59,0.59
		v11.02C110.84,152.51,110.57,152.77,110.24,152.77z"/>
	<linearGradient id="SVGID_43_" gradientUnits="userSpaceOnUse" x1="108.7972" y1="122.8977" x2="115.0769" y2="173.4204">
		<stop  offset="1.033400e-04" style="stop-color:#8DFFFF"/>
		<stop  offset="1" style="stop-color:#F2ADFF"/>
	</linearGradient>
	<path class="st63" d="M110.24,137.89c-0.33,0-0.59-0.27-0.59-0.59v-5.51c0-0.33,0.27-0.59,0.59-0.59c0.33,0,0.59,0.27,0.59,0.59
		v5.51C110.84,137.62,110.57,137.89,110.24,137.89z"/>
	<path class="st34" d="M445.86,260.26c-0.72,8.83-3.85,17.4-8.88,24.69c-1.4,2.03-2.96,3.95-4.65,5.75c-0.87,0.93,0.52,2.33,1.4,1.4
		c6.31-6.72,10.81-15.12,12.9-24.09c0.59-2.55,0.99-5.14,1.2-7.74c0.04-0.53-0.49-0.99-0.99-0.99
		C446.27,259.28,445.9,259.73,445.86,260.26L445.86,260.26z"/>
	<path class="st34" d="M212.85,227.27c5.37-7.78,12.65-14.19,21-18.6c2.34-1.24,4.76-2.31,7.25-3.22c0.5-0.18,0.84-0.67,0.69-1.22
		c-0.13-0.48-0.71-0.87-1.22-0.69c-9.25,3.36-17.65,8.97-24.28,16.25c-1.86,2.04-3.58,4.21-5.15,6.49c-0.3,0.44-0.08,1.1,0.35,1.35
		C211.99,227.92,212.55,227.71,212.85,227.27L212.85,227.27z"/>
	<path class="st34" d="M434.71,298.84c2.73-1.82,5.46-3.64,8.18-5.46c0.44-0.3,0.64-0.87,0.35-1.35c-0.26-0.44-0.91-0.65-1.35-0.35
		c-2.73,1.82-5.46,3.64-8.18,5.46c-0.44,0.3-0.64,0.87-0.35,1.35C433.62,298.92,434.26,299.13,434.71,298.84L434.71,298.84z"/>
	<path class="st34" d="M106.85,331.99c8.95,7.43,17.9,14.87,26.86,22.3c2.53,2.1,5.06,4.2,7.59,6.3c0.41,0.34,1,0.4,1.4,0
		c0.35-0.35,0.41-1.06,0-1.4c-8.95-7.43-17.9-14.87-26.86-22.3c-2.53-2.1-5.06-4.2-7.59-6.3c-0.41-0.34-1-0.4-1.4,0
		C106.5,330.94,106.44,331.65,106.85,331.99L106.85,331.99z"/>
	<path class="st34" d="M113.52,358.14c6.32,2.43,12.64,4.85,18.97,7.28c0.5,0.19,1.08-0.21,1.22-0.69c0.15-0.56-0.19-1.02-0.69-1.22
		c-6.32-2.43-12.64-4.85-18.97-7.28c-0.5-0.19-1.08,0.21-1.22,0.69C112.68,357.48,113.02,357.95,113.52,358.14L113.52,358.14z"/>
	<linearGradient id="SVGID_44_" gradientUnits="userSpaceOnUse" x1="115.9834" y1="224.599" x2="126.5795" y2="278.6699">
		<stop  offset="1.033400e-04" style="stop-color:#B2E065"/>
		<stop  offset="1" style="stop-color:#5D9C82"/>
	</linearGradient>
	<path class="st64" d="M118.51,236.45l-15.21,16.49c6.56,8.03,13.94,16.69,24.97,22.12l13.34-12.79
		C131.79,254.9,123.98,246.35,118.51,236.45z"/>
	<circle class="st3" cx="122.45" cy="257.76" r="6.86"/>
	<path class="st3" d="M108.27,258.85l14.2-16.05c-0.23-0.33-0.47-0.67-0.69-1l-14.29,16.15
		C107.75,258.25,108.01,258.55,108.27,258.85z"/>
	<path class="st3" d="M123.24,272.21l13.76-13.61c-0.3-0.26-0.61-0.51-0.91-0.77l-13.88,13.72
		C122.56,271.77,122.9,271.99,123.24,272.21z"/>
	<g>
		<linearGradient id="SVGID_45_" gradientUnits="userSpaceOnUse" x1="122.7221" y1="235.7777" x2="121.8677" y2="277.2142">
			<stop  offset="1.033400e-04" style="stop-color:#B2E065"/>
			<stop  offset="1" style="stop-color:#5D9C82"/>
		</linearGradient>
		<path class="st65" d="M120.49,261.14l-1.01,1.09l-1.26-1.16l1.03-1.12c-0.51-0.78-0.64-1.62-0.41-2.53l1.7,0.16
			c-0.12,0.74,0.06,1.33,0.54,1.78c0.36,0.33,0.64,0.39,0.83,0.18c0.08-0.09,0.11-0.19,0.08-0.32c-0.02-0.13-0.1-0.31-0.24-0.57
			l-0.41-0.73c-0.3-0.55-0.44-1.08-0.42-1.57c0.02-0.49,0.2-0.91,0.53-1.28c0.33-0.36,0.73-0.57,1.19-0.63
			c0.46-0.06,0.93,0.03,1.4,0.27l0.98-1.07l1.26,1.16l-0.97,1.05c0.44,0.66,0.55,1.4,0.33,2.21l-1.7-0.16
			c0.09-0.59-0.04-1.04-0.38-1.36c-0.27-0.25-0.49-0.29-0.65-0.12c-0.13,0.14-0.09,0.39,0.11,0.76l0.47,0.81
			c0.63,1.16,0.59,2.11-0.09,2.86c-0.38,0.41-0.83,0.64-1.35,0.68C121.54,261.6,121.02,261.46,120.49,261.14z"/>
	</g>
	<path class="st3" d="M133.8,254.21l19.78-2.08c0-0.4-0.01-0.79-0.01-1.19l-19.81,2.08C133.78,253.41,133.79,253.81,133.8,254.21z"
		/>
	<path class="st3" d="M155.41,270.25l-18.64,3.97c-0.04,0.01-0.08,0.02-0.12,0.04c0.11,0.38,0.22,0.75,0.33,1.12
		c0.01,0,0.02,0,0.03,0l18.64-3.97C155.57,271.03,155.49,270.64,155.41,270.25z"/>
	<linearGradient id="SVGID_46_" gradientUnits="userSpaceOnUse" x1="443.0169" y1="-142.4634" x2="511.5511" y2="329.1186">
		<stop  offset="1.033400e-04" style="stop-color:#8DFFFF"/>
		<stop  offset="1" style="stop-color:#F2ADFF"/>
	</linearGradient>
	<path class="st66" d="M489.99,149.94h-3.58V116.9c0-0.55-0.44-0.99-0.99-0.99s-0.99,0.44-0.99,0.99v33.04h-3.58
		c-0.79,0-1.21,0.94-0.67,1.53l4.57,5.01c0.36,0.4,0.99,0.4,1.35,0l4.57-5.01C491.2,150.88,490.78,149.94,489.99,149.94z"/>
	<linearGradient id="SVGID_47_" gradientUnits="userSpaceOnUse" x1="458.3644" y1="-253.4584" x2="545.0085" y2="268.4237">
		<stop  offset="1.033400e-04" style="stop-color:#8DFFFF"/>
		<stop  offset="1" style="stop-color:#F2ADFF"/>
	</linearGradient>
	<path class="st67" d="M522.41,77.79h-7.91V27.53c0-0.55-0.44-0.99-0.99-0.99c-0.55,0-0.99,0.44-0.99,0.99v50.26h-7.91
		c-0.79,0-1.21,0.94-0.67,1.53l8.9,9.77c0.36,0.4,0.99,0.4,1.35,0l8.9-9.77C523.62,78.74,523.2,77.79,522.41,77.79z"/>
	<path class="st28" d="M345.58,205.75c-2.21-0.14-4.89-0.12-7.71,0.3c-9.3,1.38-15.45,6.57-17.79,15.02
		c-4.86,17.5,6.39,31.9,9.53,35.5c0.15-0.43,0.3-0.86,0.45-1.29c-3.5-4.15-13.35-17.66-8.85-33.89c2.24-8.06,7.89-12.82,16.79-14.15
		c3.15-0.47,6.18-0.41,8.51-0.21C346.22,206.59,345.91,206.16,345.58,205.75z"/>
	<linearGradient id="SVGID_48_" gradientUnits="userSpaceOnUse" x1="269.0035" y1="19.3802" x2="404.8764" y2="187.0154">
		<stop  offset="1.033400e-04" style="stop-color:#8DFFFF"/>
		<stop  offset="1" style="stop-color:#F2ADFF"/>
	</linearGradient>
	<rect x="282.13" y="48.08" class="st68" width="43.78" height="29.02"/>
	<linearGradient id="SVGID_49_" gradientUnits="userSpaceOnUse" x1="269.1084" y1="19.2952" x2="404.9809" y2="186.9299">
		<stop  offset="1.033400e-04" style="stop-color:#8DFFFF"/>
		<stop  offset="1" style="stop-color:#F2ADFF"/>
	</linearGradient>
	<path class="st69" d="M328.12,79.56H280.3c-0.33,0-0.59-0.27-0.59-0.59V46.23c0-0.33,0.27-0.59,0.59-0.59h47.82
		c0.33,0,0.59,0.27,0.59,0.59v32.73C328.71,79.29,328.45,79.56,328.12,79.56z M280.89,78.37h46.63V46.83h-46.63V78.37z"/>
	<rect x="284.72" y="48.13" class="st3" width="9" height="5.44"/>
	<rect x="284.72" y="55.23" class="st3" width="5.82" height="4.08"/>
	<path class="st3" d="M313.57,75.87c-0.19,0-0.38-0.09-0.5-0.27l-11.41-17.25l-7.44,7.69c-0.12,0.12-0.28,0.19-0.45,0.18
		c-0.17-0.01-0.33-0.09-0.43-0.22l-1.63-1.98l-6.08,4.05c-0.27,0.18-0.64,0.11-0.82-0.17c-0.18-0.27-0.11-0.64,0.17-0.82l6.53-4.34
		c0.25-0.17,0.59-0.12,0.79,0.12l1.55,1.88l7.49-7.74c0.12-0.13,0.3-0.19,0.48-0.18c0.18,0.02,0.34,0.11,0.44,0.26l11.82,17.86
		c0.18,0.27,0.11,0.64-0.17,0.82C313.79,75.84,313.68,75.87,313.57,75.87z"/>
	<path class="st3" d="M313.82,76.25c-0.04,0-0.09,0-0.13-0.01l-2.53-0.57c-0.32-0.07-0.52-0.39-0.45-0.71
		c0.07-0.32,0.39-0.52,0.71-0.45l1.95,0.44L313.8,73c0.07-0.32,0.39-0.52,0.71-0.45c0.32,0.07,0.52,0.39,0.45,0.71l-0.57,2.53
		C314.33,76.06,314.09,76.25,313.82,76.25z"/>
	<g>
		<path class="st70" d="M285.3,70.43h37.17H285.3z"/>
		<g>
			<path class="st3" d="M287.67,71.02h-2.37c-0.33,0-0.59-0.27-0.59-0.59s0.27-0.59,0.59-0.59h2.37c0.33,0,0.59,0.27,0.59,0.59
				S288,71.02,287.67,71.02z"/>
			<path class="st3" d="M315.46,71.02h-4.63c-0.33,0-0.59-0.27-0.59-0.59s0.27-0.59,0.59-0.59h4.63c0.33,0,0.59,0.27,0.59,0.59
				S315.79,71.02,315.46,71.02z M306.2,71.02h-4.63c-0.33,0-0.59-0.27-0.59-0.59s0.27-0.59,0.59-0.59h4.63
				c0.33,0,0.59,0.27,0.59,0.59S306.53,71.02,306.2,71.02z M296.94,71.02h-4.63c-0.33,0-0.59-0.27-0.59-0.59s0.27-0.59,0.59-0.59
				h4.63c0.33,0,0.59,0.27,0.59,0.59S297.26,71.02,296.94,71.02z"/>
			<path class="st3" d="M322.47,71.02h-2.37c-0.33,0-0.59-0.27-0.59-0.59s0.27-0.59,0.59-0.59h2.37c0.33,0,0.59,0.27,0.59,0.59
				S322.8,71.02,322.47,71.02z"/>
		</g>
	</g>
	<path class="st3" d="M322.47,51.53h-8.9c-0.33,0-0.59-0.27-0.59-0.59c0-0.33,0.27-0.59,0.59-0.59h8.9c0.33,0,0.59,0.27,0.59,0.59
		C323.06,51.26,322.8,51.53,322.47,51.53z"/>
	<path class="st3" d="M322.47,54.77h-8.9c-0.33,0-0.59-0.27-0.59-0.59c0-0.33,0.27-0.59,0.59-0.59h8.9c0.33,0,0.59,0.27,0.59,0.59
		C323.06,54.5,322.8,54.77,322.47,54.77z"/>
	<path class="st3" d="M322.47,58.01h-8.9c-0.33,0-0.59-0.27-0.59-0.59c0-0.33,0.27-0.59,0.59-0.59h8.9c0.33,0,0.59,0.27,0.59,0.59
		C323.06,57.75,322.8,58.01,322.47,58.01z"/>
	<linearGradient id="SVGID_50_" gradientUnits="userSpaceOnUse" x1="294.7621" y1="-1.4979" x2="430.6346" y2="166.1369">
		<stop  offset="1.033400e-04" style="stop-color:#8DFFFF"/>
		<stop  offset="1" style="stop-color:#F2ADFF"/>
	</linearGradient>
	<rect x="333.6" y="52.16" class="st71" width="18.71" height="11.61"/>
	<linearGradient id="SVGID_51_" gradientUnits="userSpaceOnUse" x1="290.662" y1="1.8252" x2="426.5348" y2="169.4603">
		<stop  offset="1.033400e-04" style="stop-color:#8DFFFF"/>
		<stop  offset="1" style="stop-color:#F2ADFF"/>
	</linearGradient>
	<rect x="333.47" y="67.83" class="st72" width="30.8" height="11.61"/>
	<rect x="335.78" y="70.19" class="st3" width="7.18" height="7.18"/>
	<path class="st3" d="M359.17,77.53c-0.11,0-0.23-0.03-0.33-0.1l-6.94-4.65l-3.45,2.22c-0.25,0.16-0.58,0.11-0.77-0.11l-3.44-3.99
		c-0.21-0.25-0.19-0.62,0.06-0.84c0.25-0.21,0.62-0.19,0.84,0.06l3.1,3.6l3.34-2.15c0.2-0.13,0.46-0.13,0.65,0.01l7.26,4.87
		c0.27,0.18,0.34,0.55,0.16,0.82C359.55,77.44,359.36,77.53,359.17,77.53z"/>
	<path class="st3" d="M357.42,77.93c-0.28,0-0.54-0.2-0.58-0.49c-0.05-0.32,0.16-0.63,0.49-0.68l1.26-0.21l-0.22-1.3
		c-0.05-0.32,0.16-0.63,0.49-0.68c0.32-0.05,0.63,0.16,0.68,0.49l0.32,1.88c0.05,0.32-0.16,0.63-0.49,0.68l-1.84,0.31
		C357.49,77.92,357.45,77.93,357.42,77.93z"/>
	<path class="st3" d="M341.04,54.98h-5.54c-0.33,0-0.59-0.27-0.59-0.59c0-0.33,0.27-0.59,0.59-0.59h5.54c0.33,0,0.59,0.27,0.59,0.59
		C341.63,54.71,341.36,54.98,341.04,54.98z"/>
	<path class="st3" d="M341.04,57.46h-5.54c-0.33,0-0.59-0.27-0.59-0.59c0-0.33,0.27-0.59,0.59-0.59h5.54c0.33,0,0.59,0.27,0.59,0.59
		C341.63,57.2,341.36,57.46,341.04,57.46z"/>
	<path class="st3" d="M341.04,59.95h-5.54c-0.33,0-0.59-0.27-0.59-0.59c0-0.33,0.27-0.59,0.59-0.59h5.54c0.33,0,0.59,0.27,0.59,0.59
		C341.63,59.68,341.36,59.95,341.04,59.95z"/>
	<path class="st3" d="M341.04,62.43h-5.54c-0.33,0-0.59-0.27-0.59-0.59c0-0.33,0.27-0.59,0.59-0.59h5.54c0.33,0,0.59,0.27,0.59,0.59
		C341.63,62.17,341.36,62.43,341.04,62.43z"/>
	<path class="st3" d="M349.63,54.98h-5.54c-0.33,0-0.59-0.27-0.59-0.59c0-0.33,0.27-0.59,0.59-0.59h5.54c0.33,0,0.59,0.27,0.59,0.59
		C350.22,54.71,349.95,54.98,349.63,54.98z"/>
	<path class="st3" d="M349.63,57.46h-5.54c-0.33,0-0.59-0.27-0.59-0.59c0-0.33,0.27-0.59,0.59-0.59h5.54c0.33,0,0.59,0.27,0.59,0.59
		C350.22,57.2,349.95,57.46,349.63,57.46z"/>
	<path class="st3" d="M349.63,59.95h-5.54c-0.33,0-0.59-0.27-0.59-0.59c0-0.33,0.27-0.59,0.59-0.59h5.54c0.33,0,0.59,0.27,0.59,0.59
		C350.22,59.68,349.95,59.95,349.63,59.95z"/>
	<path class="st3" d="M349.63,62.43h-5.54c-0.33,0-0.59-0.27-0.59-0.59c0-0.33,0.27-0.59,0.59-0.59h5.54c0.33,0,0.59,0.27,0.59,0.59
		C350.22,62.17,349.95,62.43,349.63,62.43z"/>
	<linearGradient id="SVGID_52_" gradientUnits="userSpaceOnUse" x1="262.2668" y1="24.8404" x2="398.1394" y2="192.4753">
		<stop  offset="1.033400e-04" style="stop-color:#8DFFFF"/>
		<stop  offset="1" style="stop-color:#F2ADFF"/>
	</linearGradient>
	<rect x="279.26" y="84.02" class="st73" width="106.89" height="55.44"/>
	<path class="st3" d="M383.5,136.94H281.91c-0.33,0-0.59-0.27-0.59-0.59V87c0-0.33,0.27-0.59,0.59-0.59H383.5
		c0.33,0,0.59,0.27,0.59,0.59v49.34C384.09,136.67,383.83,136.94,383.5,136.94z M282.51,135.75h100.4V87.59h-100.4V135.75z"/>
	<path class="st3" d="M362.69,128.97c-0.56,0-1.12-0.24-1.51-0.7l-15.19-18.01l0.04,6.27c0.01,0.8-0.47,1.52-1.2,1.83
		c-0.73,0.31-1.58,0.15-2.15-0.41l-23.13-22.62c-0.78-0.76-0.79-2.02-0.03-2.8c0.76-0.78,2.02-0.79,2.8-0.03l19.74,19.3l-0.04-6.99
		c-0.01-0.83,0.51-1.58,1.29-1.87c0.78-0.29,1.66-0.06,2.2,0.58l18.71,22.19c0.7,0.83,0.6,2.08-0.24,2.79
		C363.59,128.82,363.14,128.97,362.69,128.97z"/>
	<path class="st3" d="M362.69,129.12h-8.11c-1.09,0-1.98-0.89-1.98-1.98c0-1.09,0.89-1.98,1.98-1.98h6.13v-6.9
		c0-1.09,0.89-1.98,1.98-1.98s1.98,0.89,1.98,1.98v8.87C364.66,128.24,363.78,129.12,362.69,129.12z"/>
	<rect x="288.23" y="92.1" class="st3" width="23.36" height="12.7"/>
	<rect x="288.32" y="109.17" class="st3" width="23.36" height="4.45"/>
	<rect x="288.32" y="117.99" class="st3" width="9.83" height="12.03"/>
	<rect x="301.85" y="117.99" class="st3" width="9.83" height="12.03"/>
	<path class="st3" d="M377.15,93.87h-12.43c-0.33,0-0.59-0.27-0.59-0.59c0-0.33,0.27-0.59,0.59-0.59h12.43
		c0.33,0,0.59,0.27,0.59,0.59C377.75,93.6,377.48,93.87,377.15,93.87z"/>
	<path class="st3" d="M377.15,98.06h-12.43c-0.33,0-0.59-0.27-0.59-0.59c0-0.33,0.27-0.59,0.59-0.59h12.43
		c0.33,0,0.59,0.27,0.59,0.59C377.75,97.8,377.48,98.06,377.15,98.06z"/>
	<path class="st3" d="M377.15,102.26h-12.43c-0.33,0-0.59-0.27-0.59-0.59c0-0.33,0.27-0.59,0.59-0.59h12.43
		c0.33,0,0.59,0.27,0.59,0.59C377.75,101.99,377.48,102.26,377.15,102.26z"/>
	<path class="st3" d="M377.15,106.45h-12.43c-0.33,0-0.59-0.27-0.59-0.59c0-0.33,0.27-0.59,0.59-0.59h12.43
		c0.33,0,0.59,0.27,0.59,0.59C377.75,106.18,377.48,106.45,377.15,106.45z"/>
	<g>
		<path class="st1" d="M429.12,178.69c0,0.55-0.02,1.06-0.17,1.55c-0.01,0.05-0.03,0.09-0.05,0.14c-0.01,0.01-0.02,0.03-0.03,0.06
			c-0.02,0.03-0.04,0.06-0.05,0.09c-0.13-0.07-0.34-0.27-0.4-0.34c-0.2-0.24-0.36-0.51-0.51-0.78c-0.29-0.51-0.45-0.91-0.63-1.46
			c-0.22-0.69-0.36-1.37-0.47-2.05c-0.81,0.25-1.39,0.64-1.81,1.09c0.31,1.54,0.82,3.03,1.78,4.29c0.4,0.52,0.92,1.03,1.58,1.19
			c0.67,0.16,1.38-0.02,1.86-0.53c0.83-0.86,0.89-2.3,0.87-3.42c-0.01-0.65-0.09-1.28-0.23-1.91c-0.61-0.45-1.38-0.83-2.3-0.92
			C428.94,176.63,429.12,177.67,429.12,178.69z M428.85,180.54C428.85,180.54,428.85,180.54,428.85,180.54
			C428.87,180.55,428.87,180.55,428.85,180.54z M428.86,180.54c0.01,0,0.01,0,0.01,0C428.96,180.56,428.95,180.56,428.86,180.54z"/>
		<path class="st1" d="M443.69,185.86c1.03,0.76,2.5,0.9,3.49,0c0.45-0.41,0.7-0.97,0.84-1.58c-0.32-0.61-0.66-1.16-1.04-1.63
			c-0.31-0.39-0.61-0.71-0.91-1c0.05,0.3,0.08,0.6,0.09,0.9c0.02,0.56,0.02,1-0.13,1.5c-0.01,0.05-0.03,0.1-0.05,0.15
			c0.01-0.02-0.01,0.01-0.05,0.08c-0.03,0.04-0.05,0.07-0.05,0.08c-0.02,0.02-0.05,0.05-0.07,0.07c-0.01,0-0.08,0.04-0.09,0.05
			c-0.04,0.01-0.09,0.03-0.13,0.04c-0.02,0-0.04,0-0.08,0c-0.08-0.01-0.11-0.01-0.1,0c-0.06-0.01-0.11-0.02-0.17-0.04
			c-0.13-0.03-0.06,0-0.18-0.07c-0.26-0.14-0.39-0.25-0.61-0.47c-0.31-0.32-0.57-0.74-0.77-1.2c-0.05-0.12-0.18-0.5-0.24-0.72
			c-0.08-0.29-0.14-0.58-0.2-0.87c-0.06-0.34-0.1-0.67-0.13-1.01c-1.59-0.14-2.6,0.88-2.6,0.88s-0.04-0.48-0.22-1.14
			c0.49,3.86,0.84,7.74,1.05,11.62c0.07,1.27,2.05,1.27,1.98,0c-0.12-2.14-0.28-4.28-0.48-6.41
			C443.1,185.36,443.37,185.62,443.69,185.86z"/>
		<path class="st1" d="M434.13,191.66c0.29-2.95,0.43-5.91,0.41-8.87c0-0.53-0.01-1.06-0.03-1.59c0.17,0.33,0.36,0.65,0.58,0.93
			c0.87,1.08,2.46,1.34,3.48,0.31c0.93-0.94,1.02-2.5,1.08-3.74c0.01-0.16,0-0.32,0-0.48c-0.43-0.79-1.08-1.52-2.03-1.85
			c0.05,0.65,0.08,1.3,0.06,1.95c-0.01,0.66-0.06,1.32-0.2,1.97c-0.05,0.24-0.11,0.53-0.28,0.72c-0.06,0.07-0.13,0.12-0.18,0.12
			c-0.37,0.01-0.63-0.57-0.77-0.87c-0.25-0.54-0.43-1.12-0.57-1.69c-0.19-0.76-0.31-1.53-0.4-2.3c-2.07,0.42-2.82,2.05-2.82,2.05
			s-0.11-0.18-0.31-0.45c0.43,1.71,0.41,3.56,0.41,5.3c0,2.83-0.14,5.67-0.42,8.49c-0.05,0.53,0.49,0.99,0.99,0.99
			C433.72,192.65,434.08,192.2,434.13,191.66z"/>
		<path class="st1" d="M420.11,178.3c0.12,0.92,0.21,1.85,0.2,2.79c-0.01,0.62-0.07,1.24-0.21,1.84c-0.04,0.18-0.13,0.51-0.16,0.59
			c-0.1,0.25-0.18,0.38-0.34,0.53c0.05-0.05-0.04-0.02-0.05,0c-0.04,0-0.09,0-0.1-0.01c-0.14-0.05-0.28-0.18-0.38-0.31
			c-0.35-0.42-0.57-0.98-0.73-1.5c-0.32-1.05-0.34-2.14-0.06-3.2c-0.27,0.16-0.55,0.35-0.85,0.58c-0.52,0.39-0.94,0.94-1.29,1.6
			c0.03,0.3,0.07,0.59,0.13,0.88c0.23,1.18,0.78,2.56,1.73,3.34c1.14,0.93,2.64,0.69,3.44-0.52c0.7-1.05,0.83-2.53,0.86-3.76
			c0.02-0.9-0.06-1.8-0.17-2.69C421.57,178.25,420.91,178.15,420.11,178.3z"/>
		<path class="st1" d="M424.37,193.17c0.47,0.13,1.14-0.16,1.22-0.69c0.74-5.07,0.47-10.22-0.87-15.17
			c-0.9,1.24-0.77,2.71-0.77,2.71s-0.27-0.48-0.83-0.94c0.97,4.21,1.18,8.59,0.55,12.87C423.6,192.48,423.81,193.01,424.37,193.17z"
			/>
	</g>
	<circle class="st15" cx="170.42" cy="205.99" r="18.26"/>
	<path class="st74" d="M170.42,220.87c-8.21,0-14.89-6.68-14.89-14.89c0-8.21,6.68-14.89,14.89-14.89s14.89,6.68,14.89,14.89
		C185.31,214.2,178.63,220.87,170.42,220.87z"/>
	<defs>
		<filter id="Adobe_OpacityMaskFilter_14_" filterUnits="userSpaceOnUse" x="153.91" y="191.05" width="31.45" height="31.45">
			<feFlood  style="flood-color:white;flood-opacity:1" result="back"/>
			<feBlend  in="SourceGraphic" in2="back" mode="normal"/>
		</filter>
	</defs>
	<mask maskUnits="userSpaceOnUse" x="153.91" y="191.05" width="31.45" height="31.45" id="SVGID_53_">
		<g class="st75">
			<defs>
				<filter id="Adobe_OpacityMaskFilter_15_" filterUnits="userSpaceOnUse" x="153.91" y="191.05" width="31.45" height="31.45">
					<feFlood  style="flood-color:white;flood-opacity:1" result="back"/>
					<feBlend  in="SourceGraphic" in2="back" mode="normal"/>
				</filter>
			</defs>
			<mask maskUnits="userSpaceOnUse" x="153.91" y="191.05" width="31.45" height="31.45" id="SVGID_53_">
				<g class="st76">
				</g>
			</mask>
			<linearGradient id="SVGID_54_" gradientUnits="userSpaceOnUse" x1="153.9093" y1="206.773" x2="185.3571" y2="206.773">
				<stop  offset="0" style="stop-color:#FFFFFF"/>
				<stop  offset="1" style="stop-color:#000000"/>
			</linearGradient>
			<path class="st77" d="M178.22,222.5c2.87-1.36,5.33-3.44,7.14-6.02l-25.43-25.43c-2.57,1.81-4.66,4.27-6.02,7.14L178.22,222.5z"
				/>
		</g>
	</mask>
	<linearGradient id="SVGID_55_" gradientUnits="userSpaceOnUse" x1="153.9093" y1="206.773" x2="185.3571" y2="206.773">
		<stop  offset="0" style="stop-color:#FFC56A"/>
		<stop  offset="1" style="stop-color:#FFFFFF"/>
	</linearGradient>
	<path class="st78" d="M178.22,222.5c2.87-1.36,5.33-3.44,7.14-6.02l-25.43-25.43c-2.57,1.81-4.66,4.27-6.02,7.14L178.22,222.5z"/>
	<defs>
		<filter id="Adobe_OpacityMaskFilter_16_" filterUnits="userSpaceOnUse" x="161.01" y="188.62" width="26.78" height="26.78">
			<feFlood  style="flood-color:white;flood-opacity:1" result="back"/>
			<feBlend  in="SourceGraphic" in2="back" mode="normal"/>
		</filter>
	</defs>
	<mask maskUnits="userSpaceOnUse" x="161.01" y="188.62" width="26.78" height="26.78" id="SVGID_56_">
		<g class="st79">
			<defs>
				<filter id="Adobe_OpacityMaskFilter_17_" filterUnits="userSpaceOnUse" x="161.01" y="188.62" width="26.78" height="26.78">
					<feFlood  style="flood-color:white;flood-opacity:1" result="back"/>
					<feBlend  in="SourceGraphic" in2="back" mode="normal"/>
				</filter>
			</defs>
			<mask maskUnits="userSpaceOnUse" x="161.01" y="188.62" width="26.78" height="26.78" id="SVGID_56_">
				<g class="st80">
				</g>
			</mask>
			<linearGradient id="SVGID_57_" gradientUnits="userSpaceOnUse" x1="161.0064" y1="202.0097" x2="187.7865" y2="202.0097">
				<stop  offset="0" style="stop-color:#FFFFFF"/>
				<stop  offset="1" style="stop-color:#000000"/>
			</linearGradient>
			<path class="st81" d="M161.01,190.34l25.06,25.06c0.71-1.18,1.29-2.44,1.72-3.78l-23-23
				C163.45,189.05,162.19,189.63,161.01,190.34z"/>
		</g>
	</mask>
	<linearGradient id="SVGID_58_" gradientUnits="userSpaceOnUse" x1="161.0064" y1="202.0097" x2="187.7865" y2="202.0097">
		<stop  offset="0" style="stop-color:#FFC56A"/>
		<stop  offset="1" style="stop-color:#FFFFFF"/>
	</linearGradient>
	<path class="st82" d="M161.01,190.34l25.06,25.06c0.71-1.18,1.29-2.44,1.72-3.78l-23-23C163.45,189.05,162.19,189.63,161.01,190.34
		z"/>
	<g>
		<path class="st3" d="M172.06,212.41v2.78h-3.2v-2.85c-1.69-0.43-2.94-1.42-3.76-2.96l2.54-1.94c0.77,1.17,1.77,1.76,3,1.76
			c0.92,0,1.38-0.27,1.38-0.8c0-0.22-0.1-0.4-0.29-0.55c-0.19-0.14-0.54-0.3-1.05-0.48l-1.49-0.49c-1.11-0.39-1.97-0.93-2.56-1.62
			c-0.59-0.7-0.89-1.51-0.89-2.43c0-0.92,0.28-1.71,0.85-2.38c0.56-0.67,1.32-1.13,2.27-1.4v-2.71h3.2v2.67
			c1.44,0.36,2.52,1.23,3.25,2.63l-2.54,1.94c-0.62-0.92-1.37-1.38-2.25-1.38c-0.7,0-1.05,0.22-1.05,0.67
			c0,0.36,0.37,0.66,1.11,0.91l1.67,0.51c2.33,0.8,3.49,2.15,3.49,4.05c0,1.05-0.33,1.94-1,2.65
			C174.08,211.7,173.18,212.18,172.06,212.41z"/>
	</g>
	
		<ellipse transform="matrix(0.2204 -0.9754 0.9754 0.2204 -70.2494 242.2181)" class="st15" cx="116.4" cy="165.06" rx="11.41" ry="11.41"/>
	<path class="st74" d="M116.4,174.36c-5.13,0-9.3-4.17-9.3-9.3c0-5.13,4.17-9.3,9.3-9.3c5.13,0,9.3,4.17,9.3,9.3
		C125.71,170.19,121.53,174.36,116.4,174.36z"/>
	<defs>
		<filter id="Adobe_OpacityMaskFilter_18_" filterUnits="userSpaceOnUse" x="106.08" y="155.72" width="19.65" height="19.65">
			<feFlood  style="flood-color:white;flood-opacity:1" result="back"/>
			<feBlend  in="SourceGraphic" in2="back" mode="normal"/>
		</filter>
	</defs>
	<mask maskUnits="userSpaceOnUse" x="106.08" y="155.72" width="19.65" height="19.65" id="SVGID_59_">
		<g class="st83">
			<defs>
				<filter id="Adobe_OpacityMaskFilter_19_" filterUnits="userSpaceOnUse" x="106.08" y="155.72" width="19.65" height="19.65">
					<feFlood  style="flood-color:white;flood-opacity:1" result="back"/>
					<feBlend  in="SourceGraphic" in2="back" mode="normal"/>
				</filter>
			</defs>
			<mask maskUnits="userSpaceOnUse" x="106.08" y="155.72" width="19.65" height="19.65" id="SVGID_59_">
				<g class="st84">
				</g>
			</mask>
			<linearGradient id="SVGID_60_" gradientUnits="userSpaceOnUse" x1="106.0824" y1="165.5468" x2="125.7361" y2="165.5468">
				<stop  offset="0" style="stop-color:#FFFFFF"/>
				<stop  offset="1" style="stop-color:#000000"/>
			</linearGradient>
			<path class="st85" d="M121.27,175.37c1.79-0.85,3.33-2.15,4.46-3.76l-15.89-15.89c-1.61,1.13-2.91,2.67-3.76,4.46L121.27,175.37z
				"/>
		</g>
	</mask>
	<linearGradient id="SVGID_61_" gradientUnits="userSpaceOnUse" x1="106.0824" y1="165.5468" x2="125.7361" y2="165.5468">
		<stop  offset="0" style="stop-color:#FFC56A"/>
		<stop  offset="1" style="stop-color:#FFFFFF"/>
	</linearGradient>
	<path class="st86" d="M121.27,175.37c1.79-0.85,3.33-2.15,4.46-3.76l-15.89-15.89c-1.61,1.13-2.91,2.67-3.76,4.46L121.27,175.37z"
		/>
	<defs>
		<filter id="Adobe_OpacityMaskFilter_20_" filterUnits="userSpaceOnUse" x="110.52" y="154.2" width="16.74" height="16.74">
			<feFlood  style="flood-color:white;flood-opacity:1" result="back"/>
			<feBlend  in="SourceGraphic" in2="back" mode="normal"/>
		</filter>
	</defs>
	<mask maskUnits="userSpaceOnUse" x="110.52" y="154.2" width="16.74" height="16.74" id="SVGID_62_">
		<g class="st87">
			<defs>
				<filter id="Adobe_OpacityMaskFilter_21_" filterUnits="userSpaceOnUse" x="110.52" y="154.2" width="16.74" height="16.74">
					<feFlood  style="flood-color:white;flood-opacity:1" result="back"/>
					<feBlend  in="SourceGraphic" in2="back" mode="normal"/>
				</filter>
			</defs>
			<mask maskUnits="userSpaceOnUse" x="110.52" y="154.2" width="16.74" height="16.74" id="SVGID_62_">
				<g class="st88">
				</g>
			</mask>
			<linearGradient id="SVGID_63_" gradientUnits="userSpaceOnUse" x1="110.5179" y1="162.5699" x2="127.2544" y2="162.5699">
				<stop  offset="0" style="stop-color:#FFFFFF"/>
				<stop  offset="1" style="stop-color:#000000"/>
			</linearGradient>
			<path class="st89" d="M110.52,155.28l15.66,15.66c0.44-0.74,0.81-1.53,1.08-2.36l-14.38-14.38
				C112.05,154.47,111.25,154.83,110.52,155.28z"/>
		</g>
	</mask>
	<linearGradient id="SVGID_64_" gradientUnits="userSpaceOnUse" x1="110.5179" y1="162.5699" x2="127.2544" y2="162.5699">
		<stop  offset="0" style="stop-color:#FFC56A"/>
		<stop  offset="1" style="stop-color:#FFFFFF"/>
	</linearGradient>
	<path class="st90" d="M110.52,155.28l15.66,15.66c0.44-0.74,0.81-1.53,1.08-2.36l-14.38-14.38
		C112.05,154.47,111.25,154.83,110.52,155.28z"/>
	<g>
		<path class="st3" d="M117.42,169.07v1.74h-2v-1.78c-1.06-0.27-1.84-0.89-2.35-1.85l1.59-1.21c0.48,0.73,1.11,1.1,1.88,1.1
			c0.57,0,0.86-0.17,0.86-0.5c0-0.14-0.06-0.25-0.18-0.34c-0.12-0.09-0.34-0.19-0.65-0.3l-0.93-0.31c-0.7-0.24-1.23-0.58-1.6-1.01
			c-0.37-0.44-0.56-0.94-0.56-1.52c0-0.57,0.18-1.07,0.53-1.49c0.35-0.42,0.82-0.71,1.42-0.88v-1.7h2v1.67
			c0.9,0.22,1.58,0.77,2.03,1.64l-1.59,1.21c-0.39-0.57-0.86-0.86-1.4-0.86c-0.44,0-0.65,0.14-0.65,0.42c0,0.22,0.23,0.41,0.7,0.57
			l1.04,0.32c1.46,0.5,2.18,1.34,2.18,2.53c0,0.66-0.21,1.21-0.63,1.65C118.69,168.63,118.13,168.92,117.42,169.07z"/>
	</g>
	<path class="st3" d="M367.24,377.48c2.72,0.78,5.38,1.77,7.93,2.98c0.48,0.23,1.07,0.13,1.35-0.35c0.25-0.43,0.13-1.12-0.35-1.35
		c-2.71-1.29-5.52-2.36-8.41-3.18C366.54,375.23,366.02,377.14,367.24,377.48L367.24,377.48z"/>
	<path class="st3" d="M190.22,382.06c0.45,0.13,0.9,0.28,1.34,0.45c0.03,0.01,0.37,0.15,0.17,0.07c0.11,0.05,0.22,0.09,0.32,0.14
		c0.21,0.1,0.43,0.2,0.64,0.31c0.42,0.22,0.83,0.46,1.22,0.71c0.2,0.13,0.39,0.26,0.58,0.4c0.1,0.07,0.19,0.14,0.28,0.21
		c-0.17-0.13,0.12,0.1,0.15,0.12c0.4,0.32,1.01,0.42,1.4,0c0.33-0.36,0.43-1.05,0-1.4c-1.66-1.34-3.54-2.34-5.59-2.93
		c-0.5-0.14-1.1,0.17-1.22,0.69C189.41,381.37,189.69,381.91,190.22,382.06L190.22,382.06z"/>
</g>
</svg>
