<?xml version="1.0" encoding="utf-8"?>
<!-- Generator: Adobe Illustrator 24.3.0, SVG Export Plug-In . SVG Version: 6.00 Build 0)  -->
<svg version="1.1" xmlns="http://www.w3.org/2000/svg" xmlns:xlink="http://www.w3.org/1999/xlink" x="0px" y="0px"
	 viewBox="0 0 363 203" style="enable-background:new 0 0 363 203;" xml:space="preserve">
<style type="text/css">
	.st0{fill:#002E4F;}
	.st1{fill:#00A4E2;}
	.st2{fill:#E1F3F6;}
	.st3{fill:#008DC4;}
	.st4{fill:#00AFE2;}
	.st5{fill:#0453AA;}
	.st6{fill:#0061E1;}
	.st7{fill:#228AFC;}
	.st8{fill:#00396A;}
	.st9{fill:none;stroke:#20C6F0;stroke-width:7.6539;stroke-linecap:round;stroke-miterlimit:10;}
	.st10{fill:#0086CF;}
	.st11{fill:#0089E0;}
	.st12{fill:#CDE5E8;}
	.st13{fill:#F6EE9E;}
	.st14{fill:#F8FDFF;}
	.st15{fill:none;stroke:#DDDD67;stroke-width:0.8679;stroke-miterlimit:10;}
	.st16{fill:none;stroke:#DDDD67;stroke-width:0.755;stroke-miterlimit:10;}
	.st17{fill:#006091;}
</style>
<g id="BACKGROUND">
</g>
<g id="OBJECTS">
	<path class="st0" d="M274.85,184.62c-2.5,3.25-5.44,5.66-4.8,6.75c0,0,1.33,0.97,5.01,0.97c6.3,0,12.5-0.48,11.48-1.12
		c-1.41-0.88-5.49-1.21-9.39-2.55c-0.96-0.33,2.11-2.2,1.27-2.51C276.69,185.53,275.33,184.98,274.85,184.62z"/>
	<path class="st0" d="M339.8,191.18c0,0,0.83,1.16,4.01,1.16c5.45,0,11.13-0.74,10.25-1.29c-1.22-0.76-10.77-2.76-10.77-2.76
		l-2.14-2.66l-3.63,2.01L339.8,191.18z"/>
	<g>
		<path class="st1" d="M322.53,110.85c-3.91,0-6.87-0.78-7.11-0.85c-2.04-0.56-3.24-2.66-2.68-4.7c0.55-2.04,2.65-3.24,4.69-2.69
			c0.13,0.04,8.74,2.24,13.76-2.07c3.36-2.89,4.64-8.32,3.8-16.16l-0.27-2.5l7.74-4.39c1.84-1.04,4.18-0.4,5.22,1.44
			c1.04,1.84,0.4,4.17-1.44,5.22l-3.42,1.94c0.54,9.23-1.7,16.05-6.68,20.29C331.93,109.97,326.69,110.85,322.53,110.85z"/>
	</g>
	<g>
		<path class="st2" d="M335.78,89.62c-0.15,5.57-1.62,9.59-4.43,12c-5.51,4.73-14.95,2.32-15.11,2.28c-2.24-0.6-4.54,0.72-5.15,2.95
			c-0.61,2.24,0.71,4.55,2.95,5.16c0.27,0.07,3.52,1.69,7.81,1.54c16.28-0.58,26.11-14.63,26.29-22.81L335.78,89.62z"/>
	</g>
	<path class="st3" d="M313.39,70.14c-1.46-0.65-2.89-1.36-4.3-2.11c-13.49,7.68-30.73,17.53-31.07,17.87c0,0,8.57,13.64,9.12,14.19
		c0.35,0.35,21.6-14.89,36.88-25.93C320.48,72.8,316.84,71.69,313.39,70.14z"/>
	<path class="st4" d="M313.61,69.74c3.53,1.56,7.25,2.69,10.84,4.1c8.42-6.08,14.92-10.81,14.92-10.81l-14.38-4.04
		c0,0-6.92,3.93-15.45,8.78C310.87,68.47,312.23,69.13,313.61,69.74z"/>
	<polygon class="st5" points="288.81,51.83 297.28,74.76 313.83,80.83 292.87,42.53 	"/>
	<polygon class="st5" points="314.74,86.47 302.47,86.47 313.39,105.54 330.03,112.55 	"/>
	<path class="st6" d="M330.03,112.55l-9.76-16.66l-41.77,24.49l-8.21-14.01l5.16-83.3l18.77-11L328,69.7l11.37-6.66l9.45,16.13
		l-11.37,6.66l9.76,16.65L330.03,112.55z M292.14,47.91l-1.06,0.62l-2.87,44.49l22.6-13.25L292.14,47.91z"/>
	<polygon class="st3" points="256.4,102.56 270.28,106.37 278.5,120.38 263.82,116.67 	"/>
	<polygon class="st4" points="256.4,102.56 270.28,106.37 275.44,23.07 262.7,20.02 	"/>
	<polygon class="st7" points="262.7,20.02 275.44,23.07 294.21,12.06 281.31,8.31 	"/>
	<path class="st0" d="M290.63,135.75c0,0,2.04,22.01,2.04,29.72c0,0-16.03,12.49-19.95,19.03c1.69,1.28,5.02,2.99,7.2,2.92
		c10.7-10.21,22.43-17.5,22.43-17.5s5.06-14.69,6.64-27.13L290.63,135.75z"/>
	<path class="st2" d="M302.06,136.79c3.61,0.03,7.3-0.6,10.4-2.28c-1.04-4.4,1.18-17.37,3.96-24.3c0,0,2.2-4.83,0.66-6.31
		c-5.7-5.48-10.55-5.04-12.06-5.1c-5.23,4.42-14.97,17.46-14.58,34.69C293.13,136.33,298.59,136.77,302.06,136.79z"/>
	<path class="st8" d="M337.42,188.24c2.09-0.58,4.09-1.54,5.37-3.25c-6.19-10.04-28.89-46.91-30.12-49.8
		c-0.03-0.07-0.06-0.16-0.09-0.24c-3.33,1.8-7.31,2.43-11.17,2.28c-3.36-0.13-8.22-0.6-10.96-3.09c0.01,0.18,0.01,0.35,0.02,0.53
		c0.47,9.63,32.4,41.72,44.97,53.99C336.13,188.56,336.8,188.41,337.42,188.24z"/>
	<g>
		<path class="st1" d="M271.51,126.81c-0.89,0-1.74-0.13-2.55-0.4c-1.69-0.56-3.92-1.99-4.98-5.54c-0.6-2.03,0.55-4.16,2.58-4.76
			c2.03-0.6,4.16,0.56,4.76,2.58c0.07,0.24,0.14,0.39,0.18,0.47c0.41,0.02,1.92-0.12,5.61-2.28c3.3-1.94,7.2-4.82,10.97-7.61
			c6.37-4.71,12.39-9.17,17.36-10.74c2.01-0.64,4.16,0.48,4.8,2.49c0.64,2.02-0.48,4.17-2.49,4.8c-3.75,1.19-9.53,5.46-15.12,9.59
			C284.46,121.48,277.24,126.81,271.51,126.81z"/>
	</g>
	<g>
		<path class="st1" d="M278.67,123.95c-0.47-2.25-0.96-4.74-2.39-6.59c-3.08,1.71-4.4,1.82-4.78,1.81
			c-0.05-0.09-0.11-0.24-0.18-0.47c-0.6-2.03-2.73-3.18-4.76-2.58c-2.03,0.6-3.18,2.73-2.58,4.76c1.05,3.56,3.29,4.98,4.98,5.54
			c0.81,0.27,1.66,0.4,2.55,0.4c2.22,0,4.67-0.8,7.31-2.14C278.77,124.43,278.72,124.19,278.67,123.95z"/>
		<path class="st2" d="M310.24,101.03c-0.64-2.01-2.79-3.13-4.8-2.49c-4.97,1.57-10.99,6.02-17.36,10.74
			c-3.77,2.79-7.67,5.67-10.97,7.61c-0.15,0.09-0.29,0.17-0.44,0.25c1.43,1.89,3.91,11.21,3.95,11.43
			c4.06-2.12,23.52-16.94,27.74-21.41C309.83,105.61,310.88,103.05,310.24,101.03z"/>
	</g>
	<path class="st9" d="M261.35,116.67"/>
	<g>
		<path class="st1" d="M266.1,123.72c-0.23,0-0.45-0.07-0.65-0.21c-3-2.15-4.57-6.28-4.63-6.45c-0.22-0.58,0.08-1.23,0.66-1.45
			c0.58-0.21,1.23,0.08,1.45,0.66l0,0c0.01,0.04,1.4,3.67,3.83,5.41c0.51,0.36,0.62,1.06,0.26,1.57
			C266.79,123.56,266.45,123.72,266.1,123.72z"/>
	</g>
	<g>
		<path class="st1" d="M266.1,120.98c-0.35,0-0.7-0.17-0.92-0.48c-1.44-2.04-2.59-6.87-2.71-7.41c-0.14-0.61,0.24-1.21,0.84-1.35
			c0.61-0.14,1.21,0.24,1.35,0.84c0.32,1.36,1.36,5.21,2.36,6.63c0.36,0.51,0.24,1.21-0.27,1.57
			C266.55,120.91,266.32,120.98,266.1,120.98z"/>
	</g>
	<g>
		<path class="st1" d="M267.65,120.34c-0.44,0-0.87-0.26-1.04-0.7c-1.03-2.53-1.43-7.83-1.45-8.05c-0.05-0.62,0.42-1.16,1.04-1.21
			c0.62-0.05,1.16,0.42,1.21,1.04c0.11,1.43,0.54,5.55,1.29,7.37c0.24,0.58-0.04,1.23-0.62,1.47
			C267.94,120.32,267.79,120.34,267.65,120.34z"/>
	</g>
	<g>
		<path class="st1" d="M269.34,119.8c-0.5,0-0.96-0.34-1.09-0.84c-0.71-2.75-0.06-5.55-0.03-5.67c0.14-0.61,0.75-0.98,1.35-0.84
			c0.6,0.14,0.98,0.75,0.84,1.35c-0.01,0.05-0.54,2.41,0.02,4.59c0.16,0.6-0.21,1.22-0.81,1.37
			C269.53,119.79,269.43,119.8,269.34,119.8z"/>
	</g>
	<g>
		<path class="st1" d="M314.59,107.15c-0.52,0-1.04-0.11-1.54-0.35c-1.8-0.85-2.57-3-1.72-4.79c0.89-1.88,2.49-3.81,2.67-4.02
			c1.28-1.52,3.55-1.71,5.08-0.43c1.52,1.28,1.71,3.55,0.43,5.07l0,0c-0.45,0.54-1.3,1.68-1.67,2.46
			C317.24,106.39,315.94,107.15,314.59,107.15z"/>
	</g>
	<g>
		<path class="st10" d="M315.11,105.29c0.43,0.47,0.87,0.91,1.34,1.34c0.59-0.35,1.09-0.88,1.4-1.54c0.37-0.78,1.22-1.92,1.67-2.46
			c1.28-1.52,1.09-3.79-0.43-5.07c-1.52-1.28-3.79-1.09-5.08,0.43c-0.07,0.09-0.36,0.44-0.75,0.95
			C313.3,101.2,313.54,103.56,315.11,105.29z"/>
	</g>
	<g>
		<path class="st1" d="M326.94,101.32c-1.43,3.48-5.41,5.13-8.89,3.7l0,0c-3.48-1.43-5.13-5.41-3.7-8.89l1.8-4.37
			c1.43-3.48,5.42-5.13,8.89-3.7l0,0c3.48,1.43,5.13,5.41,3.7,8.89L326.94,101.32z"/>
	</g>
	<path class="st8" d="M315.11,95.62c-0.55,2.34-3.92,1.59-5.18,0.37c-1.74-1.68-2.78-6.44,1.08-6.19c-2.78-4.19,6.64-8.73,7.63-3.89
		c0.74-1.25,1.49-2.37,3.13-2.48c1.18-0.08,3.24,0.84,3.07,2.28c1.75-1.38,4.3-1.28,6.03,0.12c0.55,0.45,1.55,1.44,1.05,2.17
		c-0.27,0.4-1.69,0.52-2.17,0.67c0.82-0.37,4.17,0.38,3.51,1.77c-0.31,0.65-1.95,0.07-2.43-0.07c0,0,0,0.15,0,0.15
		c1.79,0.98,2.53,1.98,2.32,4.21c-0.1,1.03-0.58,2.96-1.8,3.11c-0.63,0.07-1.35-0.32-1.34-0.97c1.5,1.49-0.62,5.49-2.51,3.52
		c-0.74-0.77-0.38-2.07,0.32-2.74c-1.12-0.64-3.54-4.04-1.82-4.95c-0.81,0.02-4.54-1.25-3.35-2.32c0.31,1.25-1.23,2.86-2.46,2.22
		c0.76,1.66-1.48,2.9-2.86,2.96c0.84,1.06-1.76,2.32-2.55,0.78L315.11,95.62z"/>
	<path class="st11" d="M187.17,82.03c0,0-2.19-8.37,8.66-10.36L195,81.73L187.17,82.03z"/>
	<g>
		<path class="st12" d="M143.72,103.16c-2.37,0-4.58-0.48-6.62-1.44c-9.85-4.65-10.94-18.64-10.99-19.23
			c-0.15-2.11,1.44-3.94,3.55-4.09c2.1-0.15,3.93,1.44,4.08,3.54c0.21,2.81,1.82,10.6,6.64,12.86c3.98,1.87,10.14-0.03,17.84-5.5
			c1.72-1.22,4.11-0.82,5.34,0.9c1.22,1.72,0.82,4.11-0.91,5.34C155.52,100.61,149.18,103.16,143.72,103.16z"/>
	</g>
	<g>
		<path class="st5" d="M164.08,110.34c1.06-2.79,2.05-5.63,3.2-8.39c-0.77-0.06-1.56-0.16-2.35-0.31c-3.71-0.71-6.86-2.22-9.43-4.53
			c-2.58-2.31-4.56-5.24-5.97-8.78c-1.4-3.54-2.22-7.57-2.45-12.09c-0.23-4.51,0.13-9.28,1.09-14.3c0.98-5.12,2.4-9.71,4.27-13.77
			c1.87-4.06,4.11-7.48,6.72-10.26c2.61-2.78,5.54-4.77,8.78-5.97c3.24-1.2,6.72-1.45,10.44-0.74c2.94,0.56,5.53,1.67,7.78,3.31
			c1.08-2.16,2.25-4.29,3.36-6.41c1.31-2.51,2.53-5.06,3.7-7.64c0.5-1.1,0.93-2.24,1.38-3.36c-3.76-2.15-7.98-3.67-12.65-4.56
			c-6.62-1.26-12.86-1.03-18.7,0.72c-5.85,1.74-11.11,4.66-15.79,8.76c-4.68,4.1-8.66,9.24-11.92,15.43
			c-3.26,6.19-5.62,13.1-7.08,20.72c-1.46,7.63-1.81,14.92-1.06,21.87c0.75,6.95,2.55,13.2,5.39,18.73
			c2.84,5.54,6.66,10.19,11.45,13.96c4.46,3.52,9.72,5.94,15.77,7.28C161.45,116.82,162.84,113.61,164.08,110.34z"/>
		<path class="st5" d="M215.91,52.8c-0.75-6.95-2.55-13.2-5.39-18.73c-2.84-5.54-6.66-10.19-11.45-13.96
			c-1.29-1.02-2.65-1.94-4.07-2.77c-0.45,1.12-0.88,2.26-1.38,3.35c-1.19,2.57-2.38,5.13-3.7,7.64c-1.12,2.13-2.3,4.27-3.39,6.45
			c0.39,0.3,0.77,0.6,1.13,0.93c2.57,2.31,4.59,5.24,6.04,8.8c1.45,3.55,2.3,7.56,2.54,12.03c0.24,4.47-0.13,9.26-1.11,14.37
			c-0.96,5.02-2.38,9.58-4.25,13.7c-1.88,4.11-4.15,7.55-6.81,10.32c-2.66,2.77-5.61,4.75-8.86,5.95c-2.39,0.88-4.88,1.25-7.47,1.11
			c-1.27,3.02-2.35,6.13-3.51,9.19c-1.15,3.03-2.44,5.99-3.77,8.94c0.3,0.06,0.6,0.13,0.9,0.18c6.62,1.27,12.85,1.03,18.7-0.72
			c5.84-1.74,11.11-4.66,15.79-8.76c4.68-4.1,8.65-9.24,11.92-15.43c3.26-6.19,5.62-13.09,7.08-20.72
			C216.31,67.05,216.66,59.75,215.91,52.8z"/>
	</g>
	<g>
		<path class="st6" d="M173.06,124.27c-6.62-1.27-12.33-3.79-17.12-7.56c-4.79-3.77-8.61-8.43-11.45-13.96
			c-2.84-5.54-4.64-11.78-5.39-18.73c-0.75-6.95-0.4-14.24,1.06-21.87c1.46-7.62,3.81-14.53,7.08-20.72
			c3.26-6.19,7.23-11.33,11.92-15.43c4.68-4.1,9.94-7.02,15.79-8.76c5.84-1.74,12.08-1.98,18.7-0.72
			c6.62,1.26,12.33,3.79,17.12,7.56c4.79,3.78,8.61,8.43,11.45,13.96c2.84,5.54,4.64,11.78,5.39,18.74
			c0.75,6.96,0.4,14.25-1.06,21.87c-1.46,7.63-3.82,14.53-7.08,20.72c-3.26,6.19-7.23,11.33-11.92,15.43
			c-4.68,4.1-9.95,7.02-15.79,8.76C185.92,125.3,179.69,125.54,173.06,124.27z M176.63,105.61c3.61,0.69,7.04,0.44,10.29-0.77
			c3.24-1.2,6.2-3.18,8.86-5.95c2.66-2.77,4.93-6.21,6.81-10.32c1.88-4.11,3.3-8.68,4.25-13.7c0.98-5.12,1.35-9.91,1.11-14.37
			c-0.24-4.46-1.09-8.48-2.54-12.03c-1.45-3.55-3.47-6.49-6.04-8.8c-2.58-2.31-5.67-3.81-9.28-4.5c-3.71-0.71-7.19-0.46-10.44,0.74
			c-3.25,1.2-6.17,3.19-8.78,5.97c-2.61,2.78-4.85,6.2-6.72,10.26c-1.87,4.06-3.29,8.65-4.27,13.77c-0.96,5.02-1.32,9.78-1.09,14.3
			c0.23,4.52,1.04,8.54,2.45,12.09c1.4,3.54,3.39,6.47,5.97,8.78C169.77,103.39,172.92,104.9,176.63,105.61z"/>
	</g>
	<g>
		<path class="st8" d="M240.58,68.07l0.29,14.07c0,0-4.02,3.6-7.62,0l1.33-15.84L240.58,68.07z"/>
		<path class="st0" d="M224.01,180.31c-0.23-0.18-1.8-0.91-2.01-1.09c-0.84,1.26-1.43,1.96-2.44,3c2.48,2.16,1.84,4.79,1.84,4.79
			s-1.75,1.51-2.44,1.85c-2.19,1.08-6.23,2.58-6.23,2.58l10.17,0.8l7.54-7.72C227.76,183.01,225.71,181.65,224.01,180.31z"/>
		<path class="st0" d="M184.17,180.86c-1.62-0.28-3.66,0.96-4.98,0c-0.31,2.83-0.25,4.37-0.25,4.37l-15.04,6.2h19.21
			c0.17-2.05-0.19-4.01,0.08-5.91C183.33,184.55,184,181.8,184.17,180.86z"/>
		<path class="st12" d="M201.68,112.58l-17,32.3c0,0,6.89,5.83,13.67,7.77l12.74-38.05L201.68,112.58z"/>
		<path class="st0" d="M220.29,183.02c1.02-1.04,1.86-2.29,2.7-3.55c-4.4-3.77-6.55-7.65-12.52-14.33
			c-2.47-2.77,4.08-18.6,5.67-21.26c2.86-4.77,3.3-8.23,5.53-16.4l-16.6,6.2c-3.95,14.15-8.55,28.31-3.94,35.06
			c4.88,7.14,13.53,12.89,17.71,15.76C219,184.61,220.16,182.92,220.29,183.02z"/>
		<g>
			<path class="st1" d="M192.34,80.37c-0.23,0-0.46-0.07-0.66-0.21c-0.5-0.36-0.62-1.07-0.26-1.57c1.34-1.86,1.63-3.4,1.63-3.41
				c0.11-0.61,0.69-1.02,1.31-0.91c0.61,0.11,1.02,0.69,0.91,1.3c-0.01,0.08-0.36,2.02-2.02,4.33
				C193.04,80.2,192.69,80.37,192.34,80.37z"/>
		</g>
		<path class="st13" d="M220.49,130.9c4.94-13.57,9.16-34.86,10.74-43.35c-0.88-0.37-1.75-0.64-2.44-0.83
			c-1.47-0.4-3.22-0.88-4.73-0.41c-0.76,0.24-1.44,0.63-2.11,1.05c-0.62,1.84-0.87,3.4-0.87,3.4s-10.61,20.29-17.53,34.13
			C209.43,126.19,215.18,128.12,220.49,130.9z"/>
		<path class="st8" d="M203.36,125.29C203.36,125.29,203.36,125.29,203.36,125.29c-0.62,1.22-1.2,2.4-1.74,3.5c0,0,0,0,0,0
			c-1.36,2.41-2.83,4.64-4.25,6.78c-13.66,20.59-18.81,37-19.73,44.77c1.3,1.02,6.24,1.59,7.88,1.88
			c2.52-12.88,9.08-21.09,20.82-30.8c3.93-3.25,6.87-7.38,9.46-10.81c1.54-2.04,3.07-5.32,4.54-9.29
			C215.01,128.53,209.25,126.6,203.36,125.29z"/>
		<g>
			<path class="st1" d="M190.11,130.95c-1.59,0-3.07-0.99-3.62-2.57c-0.69-2,0.37-4.18,2.36-4.87c4.64-1.61,11.76-7.96,16.57-14.77
				c9.74-13.82,16.58-21.48,16.87-21.8c1.41-1.57,3.83-1.7,5.4-0.29c1.57,1.41,1.7,3.83,0.29,5.4l0,0
				c-0.07,0.08-6.85,7.68-16.31,21.1c-4.74,6.72-13.12,15.09-20.31,17.59C190.95,130.89,190.53,130.95,190.11,130.95z"/>
		</g>
		<g>
			<path class="st1" d="M228.54,88.82c-0.09,0-0.18,0-0.27-0.01c-1.98-0.15-3.47-1.87-3.33-3.86c0.15-2.07,0.96-4.45,1.05-4.71
				c0.65-1.88,2.7-2.88,4.58-2.23c1.88,0.65,2.88,2.7,2.23,4.58c-0.23,0.66-0.61,2.03-0.67,2.89
				C231.99,87.37,230.41,88.82,228.54,88.82z"/>
		</g>
		<g>
			<path class="st10" d="M229.6,85.02c0.64,0.73,1.33,1.38,2.07,1.98c0.26-0.45,0.42-0.97,0.47-1.52c0.06-0.86,0.45-2.23,0.67-2.89
				c0.65-1.88-0.35-3.93-2.23-4.58c-1.56-0.54-3.23,0.06-4.13,1.35C226.78,81.39,228.44,83.69,229.6,85.02z"/>
		</g>
		<g>
			<path class="st1" d="M238.88,77.22c-0.08,3.76-3.2,6.74-6.96,6.65l0,0c-3.76-0.09-6.74-3.2-6.65-6.96l0.11-4.73
				c0.08-3.76,3.2-6.74,6.96-6.66l0,0c3.76,0.08,6.74,3.2,6.66,6.96L238.88,77.22z"/>
		</g>
		<g>
			<path class="st1" d="M184.71,129.9c-1.57,0-3.37-0.42-5.38-1.27c-0.57-0.24-0.84-0.9-0.6-1.47c0.24-0.57,0.9-0.84,1.47-0.6
				c2.96,1.25,5.32,1.42,6.82,0.52c0.53-0.32,1.22-0.15,1.55,0.38c0.32,0.53,0.15,1.22-0.38,1.54
				C187.19,129.6,186.03,129.9,184.71,129.9z"/>
		</g>
		<g>
			<path class="st1" d="M186.05,131.53c-1.79,0-3.23-0.35-4.86-0.74l-0.51-0.12c-0.6-0.14-0.98-0.75-0.83-1.36
				c0.14-0.6,0.75-0.98,1.36-0.83l0.51,0.12c2.73,0.66,4.53,1.1,8.53,0.07c0.61-0.15,1.22,0.21,1.37,0.81
				c0.16,0.6-0.21,1.22-0.81,1.37C188.88,131.35,187.37,131.53,186.05,131.53z"/>
		</g>
		<g>
			<path class="st1" d="M184.63,127.68c-3.53,0-5.95-2.17-6.08-2.29c-0.46-0.42-0.49-1.13-0.07-1.59c0.42-0.46,1.13-0.49,1.59-0.07
				c0.11,0.1,2.7,2.38,6.18,1.49c0.61-0.16,1.22,0.21,1.37,0.81c0.16,0.6-0.21,1.22-0.81,1.37
				C186.05,127.6,185.32,127.68,184.63,127.68z"/>
		</g>
		<g>
			<path class="st1" d="M186.99,126.47c-0.04,0-0.09,0-0.13-0.01c-3.83-0.45-5.39-3.21-5.46-3.33c-0.3-0.54-0.1-1.23,0.45-1.53
				c0.54-0.3,1.22-0.1,1.52,0.44c0.05,0.09,1.12,1.87,3.75,2.18c0.62,0.07,1.06,0.63,0.99,1.25
				C188.04,126.05,187.55,126.47,186.99,126.47z"/>
		</g>
		<g>
			<path class="st1" d="M200.44,81.99c-0.06,0-0.12,0-0.18-0.02c-1.86-0.31-6.96-1.11-8.14-1.11c-0.62,0-1.13-0.5-1.13-1.13
				c0-0.62,0.5-1.13,1.13-1.13c1.58,0,7.81,1.02,8.51,1.14c0.61,0.1,1.03,0.68,0.93,1.29C201.46,81.6,200.98,81.99,200.44,81.99z"/>
		</g>
		<g>
			<path class="st1" d="M199.72,84.35c-0.1,0-0.2-0.01-0.3-0.04c-0.05-0.01-5.41-1.47-7.9-1.61c-0.62-0.04-1.09-0.57-1.06-1.19
				c0.04-0.62,0.57-1.11,1.19-1.06c2.73,0.16,8.13,1.63,8.36,1.69c0.6,0.16,0.95,0.78,0.79,1.38
				C200.67,84.03,200.21,84.35,199.72,84.35z"/>
		</g>
		<g>
			<path class="st1" d="M199.18,86.83c-0.12,0-0.23-0.02-0.35-0.05c-5.07-1.64-6.32-1.74-6.99-1.79c-0.29-0.02-0.56-0.05-0.94-0.14
				c-0.6-0.16-0.96-0.77-0.8-1.38c0.16-0.6,0.78-0.96,1.38-0.8c0.18,0.05,0.31,0.06,0.54,0.08c0.82,0.07,2.18,0.18,7.5,1.89
				c0.59,0.19,0.92,0.83,0.73,1.42C200.09,86.53,199.65,86.83,199.18,86.83z"/>
		</g>
		<g>
			<path class="st1" d="M196.95,88.63c-0.03,0-0.05,0-0.08,0c-5.08-0.36-5.29-3.12-5.29-3.43l2.25-0.05c0,0,0-0.03-0.01-0.07
				c0,0.01,0.23,1.1,3.21,1.31c0.62,0.04,1.09,0.58,1.04,1.2C198.03,88.18,197.54,88.63,196.95,88.63z"/>
		</g>
		<path class="st1" d="M192.7,87.28c0,0-0.98-0.45-2.5-0.45c-1.28,0-3.02-2.17-3.02-4.43c0,0-0.62-6.65,6.39-3.64L192.7,87.28z"/>
		<path class="st12" d="M214.79,107.04l-9.84,48.43c0,0,15.23,3.67,24.58-1.71l2.36-67.29C231.9,86.47,221.44,82.81,214.79,107.04z"
			/>
		<path class="st2" d="M217.07,133.68l9.42-0.51c0,0,0.23,14.41-5.4,13.85C221.09,147.02,213.39,148.7,217.07,133.68z"/>
		<path class="st2" d="M228.9,85.32c-1.03-0.93-2.37-1.44-3.76-1.44c-1.6,0-3.13,0.68-4.19,1.87c-0.29,0.32-7.17,8.02-17,21.96
			c-0.64,0.91-1.35,1.84-2.11,2.77l-1,1.23l1.09,1.15c1.16,1.23,2.38,2.42,3.55,3.58c0.64,0.63,1.28,1.25,1.91,1.89l1.39,1.39
			l1.26-1.51c1.13-1.35,2.17-2.69,3.1-4c9.4-13.33,16.12-20.86,16.18-20.93C231.4,90.95,231.21,87.39,228.9,85.32z"/>
		
			<rect x="203.26" y="107.28" transform="matrix(0.6683 -0.7439 0.7439 0.6683 -16.3948 191.1062)" class="st14" width="5.69" height="13.31"/>
		<path class="st8" d="M218.43,79.92l8.65,3.39c0,0,3.68-17.91,0.99-20.59C228.08,62.72,218.43,61.81,218.43,79.92z"/>
		<path class="st8" d="M228.58,65.84c0.31,0.46,7.02,4.94,12.29,3.7c0,0-0.9-7.91-13.21-6.77L228.58,65.84z"/>
		<path class="st15" d="M233.76,74.28c0,2.08-1.69,3.76-3.76,3.76c-2.08,0-3.76-1.68-3.76-3.76c0-2.08,1.68-3.76,3.76-3.76
			C232.07,70.52,233.76,72.21,233.76,74.28z"/>
		<path class="st16" d="M242.26,75.02c0,1.81-1.46,3.27-3.27,3.27s-3.27-1.47-3.27-3.27c0-1.81,1.47-3.27,3.27-3.27
			S242.26,73.21,242.26,75.02z"/>
		<path class="st15" d="M233.76,74.28c0,0,1.25-0.49,1.99,0.26"/>
	</g>
	<g>
		<g>
			<path class="st10" d="M124.27,80.87c-0.09,0-0.18,0-0.27-0.01c-1.98-0.14-3.47-1.87-3.33-3.86c0.15-2.07,0.96-4.45,1.05-4.71
				c0.65-1.88,2.7-2.88,4.58-2.23c1.88,0.65,2.88,2.7,2.23,4.58c-0.23,0.66-0.61,2.03-0.67,2.89
				C127.72,79.43,126.14,80.87,124.27,80.87z"/>
		</g>
		<g>
			<path class="st0" d="M122.13,180.84c5.97,2.75,10.86,2.7,11.26,2.75c3.89-6.92,15.61-25.67,4.95-41.05l-15.08-8.1
				C123.26,134.44,138.33,150.17,122.13,180.84z"/>
			<path class="st0" d="M129.94,186.96c0,0,1.39-2.83,2.48-4.72c-0.82-0.1-4.47-0.25-5.97-0.82c-1.41,2.88-4.48,7.09-6.64,9.98
				h20.26L129.94,186.96z"/>
			<path class="st8" d="M155,143.44c-2.52-4.89-20.82-19.62-22.48-28.08c-0.15-0.75-0.27-1.52-0.38-2.3
				c-2.94,1.55-6.75,1.98-9.78,2.13c-3.43,0.17-5.48,0.39-8.8-1.23c0.28,5.25-0.57,10.32,2.49,15.64
				c6.08,10.55,26.27,19.59,28.53,23.07c4.44,6.88,5.98,21.81,7.49,30.92c2.38,0,8.02-0.1,10.33-0.93
				C161.62,177.99,162.89,158.76,155,143.44z"/>
			<path class="st0" d="M161.31,186.14c0,0-0.66-2.66-0.85-3.91c-2.32,0.81-3.67-0.01-6.05,0c0.36,2.26,0.09,6.48,0.3,8.96h19.21
				L161.31,186.14z"/>
			<path class="st12" d="M122.5,117.95c2.93-0.13,9.07-0.95,11.54-3.41c-0.5-4.02-2.3-10.48-1.67-15.68
				c2.14-17.63-6.46-22.91-6.46-22.91s-3.96-2.77-7.17,0.54c-4.84,4.99-9.57,19.09-9.09,39.94
				C112.98,118.15,118.99,118.11,122.5,117.95z"/>
		</g>
		<g>
			<path class="st1" d="M166.65,123.52c-0.29,0-0.58-0.03-0.87-0.1c-13.87-3.22-25.62-11.53-33.97-24.04
				c-6.26-9.37-8.42-17.78-8.51-18.13c-0.52-2.05,0.73-4.13,2.78-4.65c2.05-0.52,4.13,0.72,4.64,2.77c0.04,0.15,2.03,7.72,7.6,15.97
				c7.34,10.89,17.17,17.82,29.19,20.62c2.06,0.48,3.34,2.53,2.86,4.59C169.96,122.32,168.39,123.52,166.65,123.52z"/>
		</g>
		<path class="st2" d="M158.21,112.02c-7.64-3.62-14.15-9.36-19.34-17.05c-5.5-8.15-7.49-15.69-7.5-15.76c-0.51-2-2.3-3.4-4.36-3.4
			c-0.37,0-0.74,0.05-1.1,0.14c-1.17,0.29-2.15,1.02-2.76,2.06c-0.62,1.03-0.79,2.24-0.5,3.41l0.02,0.08
			c0.59,2.58,2.96,11.64,8.59,20.06c6.74,10.09,15.88,17.63,26.43,21.83c0.08,0.03,0.17,0.05,0.25,0.05c0.13,0,0.27-0.04,0.38-0.12
			c0.18-0.13,0.3-0.33,0.3-0.56v-10.13C158.6,112.37,158.45,112.13,158.21,112.02z"/>
		<g>
			<path class="st1" d="M169.49,123.79c-1.23,0-2.53-0.14-3.9-0.41c-0.61-0.12-1-0.71-0.88-1.32c0.12-0.61,0.71-1.01,1.33-0.88
				c3.35,0.67,6.15,0.43,8.31-0.73c0.55-0.29,1.23-0.08,1.52,0.46c0.29,0.55,0.08,1.23-0.46,1.52
				C173.7,123.34,171.72,123.79,169.49,123.79z"/>
		</g>
		<g>
			<path class="st1" d="M169.65,121.27c-0.54,0-1.09-0.04-1.65-0.12c-0.62-0.09-1.04-0.66-0.95-1.28c0.09-0.62,0.66-1.04,1.28-0.95
				c3.6,0.53,6.93-1.34,6.97-1.36c0.54-0.31,1.23-0.12,1.54,0.42c0.31,0.54,0.12,1.22-0.41,1.54
				C176.27,119.6,173.32,121.27,169.65,121.27z"/>
		</g>
		<g>
			<path class="st1" d="M168.65,119.06c-0.17,0-0.35-0.01-0.54-0.02c-0.62-0.04-1.09-0.57-1.05-1.19c0.04-0.62,0.57-1.09,1.19-1.05
				c2.66,0.16,4.06-1.45,4.07-1.47c0.39-0.48,1.1-0.56,1.58-0.16c0.48,0.39,0.56,1.1,0.16,1.58
				C173.99,116.84,172.15,119.06,168.65,119.06z"/>
		</g>
		<g>
			<path class="st1" d="M164.76,117.16c-0.62,0-1.13-0.5-1.13-1.13c0-0.62,0.5-1.12,1.12-1.13c0.1,0,2.32-0.05,3.59-1.88
				c0.35-0.51,1.06-0.64,1.57-0.28c0.51,0.35,0.64,1.05,0.28,1.57C168.24,117.13,164.9,117.16,164.76,117.16z"/>
		</g>
		<g>
			<path class="st1" d="M161.08,91.75c-0.35,0-0.7-0.16-0.92-0.47c-1.66-2.31-2.01-4.25-2.02-4.34c-0.11-0.61,0.31-1.19,0.92-1.3
				c0.61-0.11,1.19,0.3,1.3,0.92c0,0.01,0.3,1.54,1.63,3.4c0.36,0.51,0.25,1.21-0.26,1.57C161.53,91.68,161.3,91.75,161.08,91.75z"
				/>
		</g>
		<g>
			<path class="st1" d="M161.31,92.25c-0.07,0-0.14-0.01-0.21-0.02c-2.46-0.47-7.35-0.48-7.4-0.48c-0.62,0-1.13-0.5-1.13-1.13
				s0.5-1.13,1.13-1.13c0.21,0,5.15,0.01,7.82,0.52c0.61,0.12,1.01,0.71,0.89,1.32C162.31,91.88,161.84,92.25,161.31,92.25z"/>
		</g>
		<g>
			<path class="st1" d="M153.08,94.59c-0.56,0-1.04-0.42-1.12-0.99c-0.08-0.62,0.36-1.18,0.98-1.26c0.71-0.09,7.04-0.86,9.08-0.5
				c0.61,0.11,1.02,0.69,0.91,1.3c-0.11,0.61-0.69,1.02-1.3,0.91c-1.29-0.23-5.84,0.2-8.41,0.51
				C153.18,94.59,153.13,94.59,153.08,94.59z"/>
		</g>
		<g>
			<path class="st1" d="M154.55,97.14c-0.53,0-1-0.37-1.1-0.91c-0.12-0.61,0.28-1.2,0.89-1.32c2.73-0.53,3.45-0.76,4.77-1.18
				c0.62-0.2,1.39-0.45,2.54-0.78c0.6-0.17,1.22,0.17,1.39,0.77c0.17,0.6-0.17,1.22-0.77,1.39c-1.12,0.32-1.84,0.56-2.47,0.76
				c-1.36,0.44-2.18,0.7-5.04,1.25C154.69,97.13,154.62,97.14,154.55,97.14z"/>
		</g>
		<g>
			<path class="st1" d="M156.97,98.93c-0.54,0-1.01-0.39-1.11-0.94c-0.1-0.61,0.31-1.2,0.92-1.3c3.65-0.63,4.37-1.98,4.38-2
				c0.2-0.59,0.83-0.91,1.42-0.72c0.59,0.2,0.91,0.83,0.72,1.42c-0.14,0.44-1.12,2.65-6.13,3.51
				C157.1,98.92,157.03,98.93,156.97,98.93z"/>
		</g>
		<path class="st1" d="M161.31,97.57l-0.86-9.17c0,0,4.02,0.29,4.02,4.51C164.46,94.32,164.06,95.89,161.31,97.57z"/>
		<g>
			<path class="st1" d="M135.98,67.69c1.02,3.84-1.27,7.78-5.12,8.79l0,0c-3.84,1.02-7.78-1.27-8.8-5.11l-1.28-4.83
				c-1.02-3.84,1.27-7.78,5.12-8.79l0,0c3.84-1.02,7.78,1.27,8.8,5.11L135.98,67.69z"/>
		</g>
		<g>
			<path class="st8" d="M135.3,65.13c-0.55,1.52-1.32,3.03-2.51,4.06c-2.9,2.5-7.34,3.17-10.86,1.67l0.13,0.5
				c1.02,3.84,4.95,6.13,8.8,5.11c3.84-1.02,6.13-4.95,5.12-8.79L135.3,65.13z"/>
		</g>
		<path class="st8" d="M122.05,71.1c-2.7-1.73-5.62-8.33-1.35-9.77c2.64-0.89,1.58,7.25,1.58,9.55L122.05,71.1z"/>
		<path class="st8" d="M119.88,61.87c-3.27-2.37,0.78-9.06,8.85-9.06c4.99,0,4.95,3.82,1.5,5.88c-2.86,1.71-7.3,0.71-9.45,3.63
			L119.88,61.87z"/>
		<path class="st8" d="M135.3,66.61c-1.14-1.73-3.4-5.25-4.27-7.22c-0.56-1.26-1.32-3.4,1.2-1.88c2.11,1.27,3.25,5.76,3.05,8.04
			L135.3,66.61z"/>
	</g>
	<path class="st17" d="M78.28,82.62c-1.24,1.15-2.61,2.22-3.73,3.5L58.3,120.06l12.1-15.61l12.85-26.56
		C81.6,79.48,79.96,81.07,78.28,82.62z"/>
	<path class="st5" d="M68.64,77.04c1.18-1.61,2.31-3.51,3.65-5.17L43.86,57.99l-26.98,2.7l47.28,21.8
		C65.7,80.72,67.26,78.93,68.64,77.04z"/>
	<path class="st4" d="M72.7,72.07c-1.51,1.89-2.74,4.12-4.19,5.88c-1.3,1.59-2.61,3.17-3.95,4.73l21.49,9.91l7.8-10.19L72.7,72.07z"
		/>
	<path class="st6" d="M40.34,111.46l8.34-17.41L5,73.14l7.01-14.65l71.92-42.35l19.63,9.4L74.71,85.78l11.89,5.69l-8.07,16.86
		l-11.89-5.69l-8.34,17.41L40.34,111.46z M72.69,43.88l-1.11-0.53L33.11,65.87l23.63,11.31L72.69,43.88z"/>
	<polygon class="st17" points="86.6,91.48 93.86,82.4 88.16,95.05 78.26,108.88 	"/>
	<path class="st5" d="M83.81,77.38l28.36-62.17l-8.62,10.31L74.71,85.78C75.51,85.01,83.35,77.84,83.81,77.38z"/>
	<polygon class="st7" points="12.01,58.49 24.83,47.33 95.1,7 83.93,16.13 	"/>
	<polygon class="st7" points="83.93,16.13 103.56,25.53 112.17,15.22 95.1,7 	"/>
	<path class="st1" d="M59.85,61.54c-2.41-1.72-4.08-0.96-5.24-0.79c-1.27,0.2-2.21-0.5-2.21-0.5c-0.52-0.34-1.22-0.19-1.56,0.33
		c-0.34,0.52-0.19,1.22,0.33,1.56c0.05,0.03,1.04,0.66,2.75,1.11c-1.87,1.71-3.78,3.77-3.89,3.88c-0.42,0.46-0.39,1.17,0.06,1.59
		c0.22,0.2,0.49,0.3,0.76,0.3c0.3,0,0.61-0.12,0.83-0.36c0.02-0.02,1.35-1.46,2.84-2.89c-1.38,1.73-2.67,3.52-2.91,3.85
		c-0.36,0.51-0.25,1.21,0.26,1.57c0.2,0.14,0.43,0.21,0.66,0.21c0.35,0,0.7-0.16,0.91-0.47c0.74-1.03,1.78-2.42,2.77-3.67
		c-0.37,0.73-0.84,1.56-1.78,3.07c-0.33,0.53-0.17,1.22,0.36,1.55c0.18,0.11,0.39,0.17,0.59,0.17c0.38,0,0.74-0.19,0.96-0.53
		c0.39-0.62,0.7-1.14,0.96-1.58c-0.2,0.49-0.03,1.06,0.43,1.36c0.19,0.12,0.4,0.18,0.61,0.18c0.37,0,0.73-0.18,0.94-0.51
		c1.05-1.62,1.57-2.95,1.79-3.99l0.05,0.03C61.76,63.86,60.99,62.36,59.85,61.54z M57.59,69.46c0.37-0.65,0.63-1.15,0.87-1.64
		C58.25,68.3,57.97,68.85,57.59,69.46z"/>
	<path class="st8" d="M25.37,74.31c-3.56-0.2-8.73,6.77-3.44,8.67c-4.79-0.11-5.96,6.66-1.57,8.53c-7.69-1.5-6.79,8.47-3.16,12.07
		c-2.46-0.39-4.96,1.96-4.58,4.53c0.38,2.58,1.4,6.16,7.79,8.08c6.39,1.92,10.3-1.67,13.47-5.06c2.04,4.16,12.09-1.46,10.98-6.44
		c3.8,1.35,7.2-2.96,7.27-6.4c0.07-3.36-2.28-5.92-4.52-8.11c1.58-1.44,1.88-4.12,1.46-6.16c-0.69-3.4-4.94-3.74-4.94-6.44
		c0-0.95,0.18-3.89-0.63-5.18c-1.28-2.05-3.52-4.09-6.33-3.08C25.37,63.71,25.37,74.31,25.37,74.31z"/>
	<path class="st0" d="M32.26,183.59c-3.25-0.57-3.77-0.4-6.98-1.19l-7.43,9.08h28.81l-16.73-4.5L32.26,183.59z"/>
	<path class="st0" d="M85.91,186.19l-1.7-2.24c-1.54,0.99-3.14,1.84-4.87,2.45l4.55,5.08h16.88L85.91,186.19z"/>
	<path class="st0" d="M22.23,183.62c3.23,0.79,6.46,1.61,9.72,2.17l23.79-29.27l-4.05-11.63l-16.66-19.21l4.8,27.22L22.23,183.62z"
		/>
	<path class="st8" d="M54.59,117.61c-6.53-1.73-15.38,0.46-21.73,2.86c0,0,3.9,15.51,6.45,20.14c7.45,13.47,39.66,47.09,39.66,47.09
		c1.77-0.6,5.18-3.1,6.74-4.11L54.59,117.61z"/>
	<path class="st12" d="M31.99,126.53c6.3-2.37,18.95-6.36,25.44-4.74c0,0-8.59-20.19-12.49-24.64c-2.63-3-17.01-11.46-17.01-0.4
		C27.93,111.9,31.99,126.53,31.99,126.53z"/>
	<g>
		<path class="st1" d="M37.6,95.81c-0.08,0.03-0.17,0.05-0.26,0.08c-1.92,0.52-3.9-0.62-4.42-2.54c-0.54-2.01-0.57-4.52-0.57-4.79
			c-0.01-1.99,1.6-3.61,3.59-3.62c1.99-0.01,3.61,1.6,3.62,3.58c0,0.7,0.1,2.12,0.32,2.95C40.38,93.31,39.36,95.19,37.6,95.81z"/>
	</g>
	<g>
		<path class="st10" d="M40,92.25c-0.01-0.26-0.05-0.52-0.12-0.78c-0.22-0.83-0.31-2.25-0.32-2.95c-0.01-1.99-1.63-3.59-3.62-3.58
			c-1.99,0.01-3.6,1.63-3.59,3.62c0,0.04,0,0.15,0,0.3C34.14,90.86,37.06,91.81,40,92.25z"/>
	</g>
	<g>
		<path class="st1" d="M43.52,81.45c1.16,3.58-0.8,7.42-4.37,8.58l0,0c-3.58,1.16-7.42-0.8-8.58-4.37l-1.46-4.5
			c-1.16-3.58,0.8-7.42,4.37-8.58l0,0c3.58-1.16,7.42,0.79,8.58,4.37L43.52,81.45z"/>
	</g>
	<path class="st1" d="M83.63,77.84c-0.14-0.12-0.31-0.19-0.48-0.23c0.16-0.18,0.34-0.37,0.54-0.59c0.42-0.46,0.39-1.17-0.07-1.59
		c-0.06-0.05-0.12-0.1-0.18-0.13c0.31-0.45,0.26-1.07-0.15-1.46c-0.32-0.3-0.77-0.37-1.15-0.23c0.51-0.52,0.83-0.88,0.87-0.92
		c0.41-0.47,0.37-1.18-0.1-1.59c-0.47-0.41-1.18-0.37-1.59,0.1c-0.03,0.03-2.47,2.79-4.99,4.22c-1.09-1.65-2.56-2.23-2.64-2.26
		c-0.58-0.22-1.21,0.07-1.44,0.64c-0.22,0.57,0.06,1.22,0.63,1.46c0.05,0.02,0.91,0.38,1.58,1.41c-0.09,0.25-0.2,0.62-0.26,1.04
		c-16.56,22.42-38.53,14.46-39.52,14.08c-1.97-0.75-4.18,0.22-4.94,2.19c-0.76,1.97,0.21,4.19,2.18,4.95
		c0.27,0.1,5.64,2.15,13.31,2.15c1.54,0,3.18-0.08,4.88-0.28c8.27-0.96,20.5-5.72,30.27-18.32c0.16-0.09,0.39-0.23,0.69-0.45
		c0.2-0.13,0.4-0.27,0.61-0.44l-0.03-0.02c0.58-0.49,1.29-1.17,2.1-2.14C84.17,78.94,84.11,78.23,83.63,77.84z"/>
	<path class="st2" d="M53.14,91.84l-0.93,0.2c-2.27,0.49-4.63,0.74-7,0.74c-5.81,0-9.84-1.46-10.28-1.63
		c-0.52-0.2-1.06-0.3-1.61-0.3c-1.87,0-3.52,1.13-4.2,2.88c-0.43,1.12-0.51,2.4,0.08,3.44c2.2,3.9,8.23,5.48,16.05,5.48
		c1.66,0,3.33-0.1,4.96-0.28c1-0.12,2.04-0.29,3.11-0.51l0.66-0.17c0,0-0.94-2.84-1.14-5.73C52.75,94.85,53.14,91.84,53.14,91.84z"
		/>
	<path class="st8" d="M28.96,84.78c2.36-1.5,3.18-4.32,2.92-7.13c2.07,1.39,3.71,0.54,5.01-1.85c3.93,5.5,9.91-2.68,1.75-5.65
		c-6.53-2.37-12.93,4.09-11.26,10.58L28.96,84.78z"/>
</g>
<g id="DESIGNED_BY_FREEPIK">
</g>
</svg>
